<svg version="1.1" xmlns="http://www.w3.org/2000/svg" xmlns:xlink="http://www.w3.org/1999/xlink" x="0px" y="0px"
	 viewBox="0 0 50.997 50.997" style="enable-background:new 0 0 50.997 50.997;" xml:space="preserve">
<g>
	<g>
		<path d="M36.831,0L0,36.831l14.166,14.166l36.831-36.831L36.831,0z M2.833,36.831l4.959-4.959l7.082,7.082l1.416-1.417
			l-7.082-7.082l4.25-4.25l4.249,4.249l1.416-1.416l-4.249-4.249l4.25-4.25l7.082,7.082l1.417-1.417l-7.082-7.082l4.251-4.251
			l4.249,4.249l1.416-1.417l-4.249-4.249l4.25-4.25l7.082,7.082l1.416-1.417l-7.082-7.082l4.955-4.955l11.333,11.333L14.166,48.163
			L2.833,36.831z"/>
	</g>
</g>
<g>
</g>
<g>
</g>
<g>
</g>
<g>
</g>
<g>
</g>
<g>
</g>
<g>
</g>
<g>
</g>
<g>
</g>
<g>
</g>
<g>
</g>
<g>
</g>
<g>
</g>
<g>
</g>
<g>
</g>
</svg>
