<svg version="1.1" xmlns="http://www.w3.org/2000/svg" xmlns:xlink="http://www.w3.org/1999/xlink" x="0px" y="0px"
	 viewBox="0 0 377.64 377.64" style="enable-background:new 0 0 377.64 377.64;" xml:space="preserve">
<path d="M369.64,357.034H8c-4.418,0-8-3.582-8-8s3.582-8,8-8h361.64c4.418,0,8,3.582,8,8S374.058,357.034,369.64,357.034z
	 M354.967,320.571c-4.418,0-8-3.582-8-8V135.786h-64.508c-4.418,0-8-3.582-8-8s3.582-8,8-8h72.51c4.418,0,8,3.582,8,8
	c0,0.061-0.001,0.121-0.002,0.181v184.604C362.967,316.989,359.385,320.571,354.967,320.571z M315.096,320.571H62.543
	c-4.418,0-8-3.582-8-8V198.826c0-4.418,3.582-8,8-8h252.553c4.418,0,8,3.582,8,8v113.745
	C323.096,316.989,319.514,320.571,315.096,320.571z M259.958,304.571h47.138v-97.745h-47.138V304.571z M196.82,304.571h47.139
	v-97.745H196.82V304.571z M133.682,304.571h47.138v-97.745h-47.138V304.571z M70.543,304.571h47.139v-97.745H70.543V304.571z
	 M22.67,320.571c-4.418,0-8-3.582-8-8V127.907c0-0.04-0.001-0.081-0.001-0.121c0-4.418,3.582-8,8-8h72.51c4.418,0,8,3.582,8,8
	s-3.582,8-8,8H30.67v176.785C30.67,316.989,27.089,320.571,22.67,320.571z M188.82,168.33c-40.728,0-73.862-33.134-73.862-73.862
	s33.134-73.862,73.862-73.862s73.861,33.134,73.861,73.862S229.547,168.33,188.82,168.33z M179.581,151.593
	c3.009,0.484,6.096,0.737,9.239,0.737c11.291,0,21.838-3.252,30.752-8.866c-2.185-11.955-6.383-23.271-12.239-33.568
	C194.325,120.5,184.477,134.928,179.581,151.593z M133.872,112.614c5.014,15.147,16.13,27.541,30.421,34.257
	c5.989-20.215,18.112-37.654,34.097-50.3c-3.264-4.163-6.826-8.081-10.657-11.725C173.29,99.169,154.586,109.092,133.872,112.614z
	 M220.649,100.988c5.507,9.466,9.787,19.702,12.628,30.476c8.366-10.037,13.404-22.938,13.404-36.996
	c0-0.806-0.017-1.606-0.049-2.404C237.406,93.611,228.652,96.669,220.649,100.988z M142.909,59.289
	c-7.492,9.755-11.951,21.958-11.951,35.18c0,0.804,0.017,1.606,0.049,2.403c16.923-2.838,32.26-10.758,44.274-22.22
	C165.549,67.824,154.638,62.571,142.909,59.289z M198.165,72.719c4.905,4.607,9.432,9.603,13.535,14.939
	c9.827-5.504,20.64-9.394,32.067-11.336c-5.015-15.146-16.131-27.541-30.42-34.256C210.035,53.246,204.845,63.579,198.165,72.719z
	 M156.127,46.75c10.657,3.895,20.626,9.235,29.676,15.77c5.382-7.542,9.567-16.021,12.256-25.177
	c-3.009-0.484-6.097-0.737-9.239-0.737C176.698,36.606,165.434,40.354,156.127,46.75z"/>
<g>
</g>
<g>
</g>
<g>
</g>
<g>
</g>
<g>
</g>
<g>
</g>
<g>
</g>
<g>
</g>
<g>
</g>
<g>
</g>
<g>
</g>
<g>
</g>
<g>
</g>
<g>
</g>
<g>
</g>
</svg>
