<svg version="1.1" xmlns="http://www.w3.org/2000/svg" xmlns:xlink="http://www.w3.org/1999/xlink" x="0px" y="0px"
	 viewBox="0 0 423.667 423.667" style="enable-background:new 0 0 423.667 423.667;" xml:space="preserve">
<g>
	<path d="M184.344,244.174h47.989c4.418,0,8-3.582,8-8V196.57c0-4.418-3.582-8-8-8h-47.989c-4.418,0-8,3.582-8,8v39.604
		C176.344,240.593,179.926,244.174,184.344,244.174z M192.344,204.57h31.989v23.604h-31.989V204.57z"/>
	<path d="M264.333,244.174h111.834c4.418,0,8-3.582,8-8V196.57c0-4.418-3.582-8-8-8H264.333c-4.418,0-8,3.582-8,8v39.604
		C256.333,240.593,259.915,244.174,264.333,244.174z M272.333,204.57h95.834v23.604h-95.834V204.57z"/>
	<path d="M184.344,315.917h47.989c4.418,0,8-3.582,8-8v-39.604c0-4.418-3.582-8-8-8h-47.989c-4.418,0-8,3.582-8,8v39.604
		C176.344,312.335,179.926,315.917,184.344,315.917z M192.344,276.313h31.989v23.604h-31.989V276.313z"/>
	<path d="M264.333,315.917h111.834c4.418,0,8-3.582,8-8v-39.604c0-4.418-3.582-8-8-8H264.333c-4.418,0-8,3.582-8,8v39.604
		C256.333,312.335,259.915,315.917,264.333,315.917z M272.333,276.313h95.834v23.604h-95.834V276.313z"/>
	<path d="M415.833,331.842V164.333c0-4.418-3.582-8-8-8H160.25v-72.5c0-4.418-3.582-8-8-8H15.833c-4.418,0-8,3.582-8,8v248.009
		c-4.34,0.09-7.833,3.63-7.833,7.992c0,4.418,3.582,8,8,8h407.667c4.418,0,8-3.582,8-8
		C423.667,335.471,420.174,331.931,415.833,331.842z M399.833,172.333v159.5H160.25v-159.5H399.833z M144.25,91.833v72.5v167.5
		H23.833v-15.917h96.834c4.418,0,8-3.582,8-8s-3.582-8-8-8H23.833v-15.972h96.834c4.418,0,8-3.582,8-8s-3.582-8-8-8H23.833v-15.972
		h96.834c4.418,0,8-3.582,8-8s-3.582-8-8-8H23.833V220h96.834c4.418,0,8-3.582,8-8s-3.582-8-8-8H23.833v-15.973h96.834
		c4.418,0,8-3.582,8-8s-3.582-8-8-8H23.833v-15.972h96.834c4.418,0,8-3.582,8-8s-3.582-8-8-8H23.833v-15.972h96.834
		c4.418,0,8-3.582,8-8s-3.582-8-8-8H23.833v-16.25H144.25z"/>
</g>
<g>
</g>
<g>
</g>
<g>
</g>
<g>
</g>
<g>
</g>
<g>
</g>
<g>
</g>
<g>
</g>
<g>
</g>
<g>
</g>
<g>
</g>
<g>
</g>
<g>
</g>
<g>
</g>
<g>
</g>
</svg>
