<svg version="1.1" xmlns="http://www.w3.org/2000/svg" xmlns:xlink="http://www.w3.org/1999/xlink" x="0px" y="0px"
	 viewBox="0 0 311.404 311.404" style="enable-background:new 0 0 311.404 311.404;" xml:space="preserve">
<g>
	<path d="M274.182,115.245l30.476-30.474c1.313-1.313,2.05-3.093,2.05-4.95s-0.737-3.637-2.05-4.95L231.836,2.05
		c-2.734-2.733-7.166-2.733-9.9,0l-14.288,14.287c-16.354-8.082-36.742-5.337-50.339,8.259L125.424,56.48
		c-4.537-0.425-9.108-0.516-13.656-0.241l-22.3-22.3c-1.313-1.313-3.094-2.05-4.95-2.05s-3.637,0.737-4.95,2.05L6.746,106.76
		c-1.313,1.313-2.05,3.093-2.05,4.95s0.737,3.637,2.051,4.95l10.991,10.992l-4.347,43.691c-4.046,9.702-2.134,21.321,5.748,29.203
		c5.207,5.208,12.048,7.812,18.889,7.812c0.398,0,0.797-0.011,1.195-0.028c-0.018,0.401-0.029,0.803-0.029,1.207
		c0,7.135,2.779,13.844,7.824,18.889c5.046,5.045,11.754,7.824,18.89,7.824c0.404,0,0.806-0.012,1.207-0.029
		c-0.321,7.234,2.272,14.574,7.783,20.085c5.046,5.045,11.754,7.824,18.89,7.824c0.404,0,0.806-0.012,1.207-0.029
		c-0.321,7.234,2.272,14.574,7.784,20.085c5.207,5.208,12.048,7.812,18.889,7.812c4.959,0,9.917-1.376,14.254-4.113
		c0.101,0.114,0.198,0.23,0.307,0.339l15.195,15.196c5.325,5.325,12.318,7.987,19.313,7.987c6.993,0,13.988-2.663,19.312-7.987
		c5.159-5.158,8-12.017,8-19.313c0-0.487-0.015-0.971-0.04-1.453c0.482,0.025,0.967,0.04,1.453,0.04c7.296,0,14.154-2.841,19.313-8
		c5.159-5.158,8-12.017,8-19.313c0-0.492-0.015-0.981-0.041-1.468c0.484,0.026,0.969,0.041,1.454,0.041
		c6.994,0,13.988-2.662,19.313-7.986c5.158-5.159,7.999-12.018,7.999-19.313c0-0.487-0.015-0.971-0.04-1.453
		c0.483,0.025,0.967,0.04,1.454,0.04c7.295,0,14.154-2.841,19.313-8c5.158-5.159,7.999-12.018,7.999-19.313
		c0-7.295-2.841-14.154-7.999-19.313l-16.299-16.299c9.409-14.253,14.063-30.606,14.102-46.931
		C274.079,115.337,274.132,115.295,274.182,115.245z M226.885,16.899l62.923,62.922l-17.61,17.609
		c-3.319-15.861-11.106-30.911-23.25-43.056l-29.769-29.769L226.885,16.899z M29.039,190.646c-4.957-4.957-4.957-13.023,0-17.98
		h-0.001l10.596-10.594c2.4-2.401,5.594-3.724,8.989-3.724s6.589,1.322,8.99,3.724s3.724,5.594,3.724,8.99s-1.322,6.589-3.725,8.99
		l-2.034,2.034l-8.56,8.56h0.001C42.061,195.601,33.995,195.603,29.039,190.646z M65.908,222.249c-3.396,0-6.589-1.322-8.99-3.724
		s-3.724-5.594-3.724-8.99c0-3.393,1.32-6.583,3.718-8.984c0.002-0.002,0.004-0.004,0.007-0.007l20.189-20.19
		c2.4-2.401,5.594-3.724,8.989-3.724c3.396,0,6.589,1.322,8.99,3.724c4.956,4.956,4.957,13.02,0.004,17.977l-4.613,4.613
		l-15.581,15.579C72.497,220.927,69.303,222.249,65.908,222.249z M93.788,250.128c-3.396,0-6.589-1.322-8.99-3.724
		c-4.957-4.957-4.957-13.023,0-17.98h-0.001l20.191-20.189c0.004-0.004,0.007-0.008,0.011-0.012l8.474-8.474
		c2.4-2.401,5.594-3.724,8.989-3.724s6.589,1.322,8.99,3.724s3.724,5.594,3.724,8.99c0,3.396-1.322,6.589-3.725,8.99l-8.485,8.485
		l-20.189,20.189C100.377,248.806,97.183,250.128,93.788,250.128z M112.677,274.284c-4.957-4.957-4.957-13.023,0-17.98
		l20.191-20.192c4.958-4.953,13.022-4.954,17.978,0.003c4.957,4.957,4.957,13.023,0,17.98l-20.188,20.19
		C125.701,279.24,117.634,279.242,112.677,274.284z M270.224,197.927c0,3.556-1.385,6.898-3.899,9.413
		c-2.514,2.514-5.856,3.899-9.412,3.899s-6.899-1.385-9.413-3.899l-3.999-3.999c-2.734-2.733-7.166-2.733-9.9,0
		c-2.733,2.733-2.733,7.166,0,9.899l4,3.999c2.514,2.514,3.898,5.857,3.898,9.413s-1.385,6.898-3.898,9.413
		c-5.189,5.189-13.635,5.191-18.826,0l-3.999-3.999c-2.734-2.733-7.166-2.733-9.9,0c-2.733,2.733-2.733,7.166,0,9.899l4,3.999
		c2.514,2.514,3.898,5.857,3.898,9.413s-1.385,6.899-3.899,9.413c-5.189,5.19-13.632,5.19-18.822,0.003
		c-0.001-0.001-0.002-0.002-0.003-0.003c-0.001-0.002-0.003-0.003-0.005-0.005l-3.995-3.994c-2.732-2.733-7.165-2.733-9.899,0.001
		c-2.733,2.733-2.733,7.166,0.001,9.899l3.998,3.998c2.515,2.515,3.899,5.857,3.899,9.413s-1.385,6.899-3.899,9.413
		c-5.19,5.191-13.636,5.19-18.826,0l-15.049-15.049l14.474-14.475c10.415-10.416,10.415-27.363-0.001-37.779
		c-3.852-3.852-8.599-6.276-13.578-7.278c1.317-3.191,2.008-6.641,2.008-10.198c0-7.135-2.779-13.844-7.824-18.889
		c-5.046-5.045-11.754-7.824-18.89-7.824c-3.556,0-7.006,0.691-10.197,2.008c-1.003-4.979-3.426-9.726-7.279-13.578
		c-5.046-5.046-11.754-7.824-18.89-7.824c-4.014,0-7.892,0.879-11.415,2.546c-1.094-4.888-3.542-9.378-7.17-13.006
		c-5.046-5.045-11.754-7.824-18.89-7.824s-13.844,2.779-18.889,7.824l-0.407,0.407l2.67-26.84c0.208-2.088-0.532-4.159-2.017-5.643
		l-8.386-8.386l62.923-62.922l19.636,19.637c1.378,1.378,3.228,2.116,5.221,2.043c0.187-0.007,0.373-0.022,0.558-0.044
		c4.888-0.473,9.823-0.459,14.707,0.034l-4.349,44.601c-0.734,7.538,1.511,14.909,6.322,20.757
		c4.812,5.848,11.613,9.472,19.151,10.202c0.926,0.09,1.843,0.134,2.755,0.134c14.406,0,26.771-10.98,28.188-25.609l1.913-19.734
		l87.706,87.706C268.839,191.029,270.224,194.372,270.224,197.927z M249.782,152.172l-68.003-68.004
		c-0.439-0.44-0.927-0.801-1.44-1.099l1.336-13.785c0.373-3.848-2.444-7.27-6.292-7.643c-3.851-0.377-7.271,2.443-7.644,6.292
		l-4.969,51.259c-0.762,7.871-7.79,13.653-15.657,12.891c-3.814-0.37-7.256-2.203-9.691-5.163c-2.435-2.959-3.57-6.689-3.199-10.504
		l5.287-54.223l27.698-27.698c11.596-11.597,30.465-11.597,42.061,0l29.778,29.779C262.566,87.792,266.605,124.301,249.782,152.172z
		"/>
</g>
<g>
</g>
<g>
</g>
<g>
</g>
<g>
</g>
<g>
</g>
<g>
</g>
<g>
</g>
<g>
</g>
<g>
</g>
<g>
</g>
<g>
</g>
<g>
</g>
<g>
</g>
<g>
</g>
<g>
</g>
</svg>
