<svg version="1.1" xmlns="http://www.w3.org/2000/svg" xmlns:xlink="http://www.w3.org/1999/xlink" x="0px" y="0px"
	 viewBox="0 0 464.666 464.666" style="enable-background:new 0 0 464.666 464.666;" xml:space="preserve">
<g>
	<path d="M456.5,389h-0.167V244.541h0.333c4.418,0,8-3.582,8-8s-3.582-8-8-8H360.25V92.708c0-4.418-3.582-8-8-8h-39.584V67.666
		c0-4.418-3.582-8-8-8H160c-4.418,0-8,3.582-8,8v17.042h-39.584c-4.418,0-8,3.582-8,8v135.833H8c-4.418,0-8,3.582-8,8s3.582,8,8,8
		h0.333V389H8.166c-4.418,0-8,3.582-8,8s3.582,8,8,8H456.5c4.418,0,8-3.582,8-8S460.918,389,456.5,389z M440.333,389H360.25V244.541
		h80.083V389z M344.25,100.708v135.833V389h-31.584v-40h8c4.418,0,8-3.582,8-8s-3.582-8-8-8h-8V100.708H344.25z M224.333,132.333
		v72.5h-24v-72.5H224.333z M263.833,132.333v72.5h-23.5v-72.5H263.833z M296.666,132.333v72.5h-16.833v-72.5H296.666z
		 M240.333,293.333v-72.5h23.5v72.5H240.333z M200.333,293.333v-72.5h24v72.5H200.333z M168,293.333v-72.5h16.333v72.5H168z
		 M279.833,220.833h16.833v72.5h-16.833V220.833z M184.333,204.833H168v-72.5h16.333V204.833z M168,309.333h128.666V333H168V309.333
		z M224.333,349v40H168v-40H224.333z M240.333,349h56.333v40h-56.333V349z M168,75.666h128.666v40.667H168V75.666z M120.416,100.708
		H152V333h-8c-4.418,0-8,3.582-8,8s3.582,8,8,8h8v40h-31.584V236.541V100.708z M24.333,244.541h80.083V389H24.333V244.541z"/>
	<path d="M48.333,325.75c-4.418,0-8,3.582-8,8v23.917c0,4.418,3.582,8,8,8s8-3.582,8-8V333.75
		C56.333,329.331,52.751,325.75,48.333,325.75z"/>
	<path d="M80.583,325.75c-4.418,0-8,3.582-8,8v23.917c0,4.418,3.582,8,8,8s8-3.582,8-8V333.75
		C88.583,329.331,85.001,325.75,80.583,325.75z"/>
	<path d="M48.333,269.416c-4.418,0-8,3.582-8,8v23.917c0,4.418,3.582,8,8,8s8-3.582,8-8v-23.917
		C56.333,272.998,52.751,269.416,48.333,269.416z"/>
	<path d="M80.583,269.416c-4.418,0-8,3.582-8,8v23.917c0,4.418,3.582,8,8,8s8-3.582,8-8v-23.917
		C88.583,272.998,85.001,269.416,80.583,269.416z"/>
	<path d="M384.771,365.666c4.418,0,8-3.582,8-8V333.75c0-4.418-3.582-8-8-8s-8,3.582-8,8v23.917
		C376.771,362.085,380.353,365.666,384.771,365.666z"/>
	<path d="M417.021,365.666c4.418,0,8-3.582,8-8V333.75c0-4.418-3.582-8-8-8s-8,3.582-8,8v23.917
		C409.021,362.085,412.603,365.666,417.021,365.666z"/>
	<path d="M384.771,309.333c4.418,0,8-3.582,8-8v-23.917c0-4.418-3.582-8-8-8s-8,3.582-8,8v23.917
		C376.771,305.751,380.353,309.333,384.771,309.333z"/>
	<path d="M417.021,309.333c4.418,0,8-3.582,8-8v-23.917c0-4.418-3.582-8-8-8s-8,3.582-8,8v23.917
		C409.021,305.751,412.603,309.333,417.021,309.333z"/>
</g>
<g>
</g>
<g>
</g>
<g>
</g>
<g>
</g>
<g>
</g>
<g>
</g>
<g>
</g>
<g>
</g>
<g>
</g>
<g>
</g>
<g>
</g>
<g>
</g>
<g>
</g>
<g>
</g>
<g>
</g>
</svg>
