<svg version="1.1" xmlns="http://www.w3.org/2000/svg" xmlns:xlink="http://www.w3.org/1999/xlink" x="0px" y="0px"
	 viewBox="0 0 455.5 455.5" style="enable-background:new 0 0 455.5 455.5;" xml:space="preserve">
<g>
	<path d="M447.75,391.763v-95.308c2.483-0.123,4.779-1.381,6.197-3.441c1.492-2.169,1.822-4.934,0.881-7.394l-15.25-39.854
		c-1.185-3.096-4.156-5.141-7.472-5.141H319.25V80.875c0-4.418-3.582-8-8-8H207.542c-4.418,0-8,3.582-8,8v79.646h-39.275V55.75
		c0-4.418-3.582-8-8-8h-32.008c-4.418,0-8,3.582-8,8v104.771H96.25V55.75c0-4.418-3.582-8-8-8H56.241c-4.418,0-8,3.582-8,8v104.771
		H23.625c-3.315,0-6.287,2.045-7.472,5.141l-15.25,39.854c-0.941,2.459-0.611,5.224,0.881,7.394
		c1.422,2.065,3.726,3.325,6.216,3.442V391.75c-4.418,0-8,3.582-8,8s3.582,8,8,8h8h191.542h104.875H439.75h7.75c4.418,0,8-3.582,8-8
		C455.5,395.416,452.051,391.896,447.75,391.763z M128.259,95.875h16.008v64.333h-16.008V95.875z M144.267,63.75v16.125h-16.008
		V63.75H144.267z M64.241,95.875H80.25v64.333H64.241V95.875z M80.25,63.75v16.125H64.241V63.75H80.25z M426.602,256.625
		l9.128,23.854h-3.623H319.25v-23.854H426.602z M215.542,88.875h87.708V391.75h-87.708V208.208V88.875z M135.896,216.208v47.5
		h-48.25v-47.5H135.896z M199.542,216.208v47.5h-47.646v-47.5H199.542z M199.542,327.958h-47.646v-48.25h47.646V327.958z
		 M71.646,263.708H24v-47.352c0.426-0.02,0.846-0.064,1.253-0.148h46.393V263.708z M24,279.708h47.646v48.25H24V279.708z
		 M87.646,279.708h48.25v48.25h-48.25V279.708z M135.896,343.958v47.792h-48.25v-47.792H135.896z M151.896,343.958h47.646v47.792
		h-47.646V343.958z M29.13,176.521h170.412v23.688h-54.143c-0.488-0.093-0.989-0.146-1.504-0.146s-1.016,0.053-1.504,0.146H81.149
		c-0.488-0.093-0.989-0.146-1.504-0.146s-1.016,0.053-1.504,0.146H20.066L29.13,176.521z M24,343.958h47.646v47.792H24V343.958z
		 M399.5,391.75h-48.167v-39.708H399.5V391.75z M415.5,391.75v-47.708c0-4.418-3.582-8-8-8h-64.167c-4.418,0-8,3.582-8,8v47.708
		h-14.916v-95.271H431.75v95.271H415.5z"/>
	<path d="M248.208,144.5c4.418,0,8-3.582,8-8v-15.75c0-4.418-3.582-8-8-8s-8,3.582-8,8v15.75
		C240.208,140.918,243.79,144.5,248.208,144.5z"/>
	<path d="M271.75,144.5c4.418,0,8-3.582,8-8v-15.75c0-4.418-3.582-8-8-8s-8,3.582-8,8v15.75
		C263.75,140.918,267.332,144.5,271.75,144.5z"/>
	<path d="M248.208,200.99c4.418,0,8-3.582,8-8v-15.75c0-4.418-3.582-8-8-8s-8,3.582-8,8v15.75
		C240.208,197.408,243.79,200.99,248.208,200.99z"/>
	<path d="M271.75,200.99c4.418,0,8-3.582,8-8v-15.75c0-4.418-3.582-8-8-8s-8,3.582-8,8v15.75
		C263.75,197.408,267.332,200.99,271.75,200.99z"/>
	<path d="M248.208,256.625c4.418,0,8-3.582,8-8v-15.75c0-4.418-3.582-8-8-8s-8,3.582-8,8v15.75
		C240.208,253.043,243.79,256.625,248.208,256.625z"/>
	<path d="M271.75,256.625c4.418,0,8-3.582,8-8v-15.75c0-4.418-3.582-8-8-8s-8,3.582-8,8v15.75
		C263.75,253.043,267.332,256.625,271.75,256.625z"/>
	<path d="M248.208,313.115c4.418,0,8-3.582,8-8v-15.75c0-4.418-3.582-8-8-8s-8,3.582-8,8v15.75
		C240.208,309.533,243.79,313.115,248.208,313.115z"/>
	<path d="M271.75,313.115c4.418,0,8-3.582,8-8v-15.75c0-4.418-3.582-8-8-8s-8,3.582-8,8v15.75
		C263.75,309.533,267.332,313.115,271.75,313.115z"/>
	<path d="M248.208,368.781c4.418,0,8-3.582,8-8v-15.75c0-4.418-3.582-8-8-8s-8,3.582-8,8v15.75
		C240.208,365.2,243.79,368.781,248.208,368.781z"/>
	<path d="M271.75,368.781c4.418,0,8-3.582,8-8v-15.75c0-4.418-3.582-8-8-8s-8,3.582-8,8v15.75
		C263.75,365.2,267.332,368.781,271.75,368.781z"/>
</g>
<g>
</g>
<g>
</g>
<g>
</g>
<g>
</g>
<g>
</g>
<g>
</g>
<g>
</g>
<g>
</g>
<g>
</g>
<g>
</g>
<g>
</g>
<g>
</g>
<g>
</g>
<g>
</g>
<g>
</g>
</svg>
