<svg version="1.1" xmlns="http://www.w3.org/2000/svg" xmlns:xlink="http://www.w3.org/1999/xlink" x="0px" y="0px"
	 viewBox="0 0 377.638 377.638" style="enable-background:new 0 0 377.638 377.638;" xml:space="preserve">
<path d="M369.638,358.523H8c-4.418,0-8-3.582-8-8s3.582-8,8-8h361.638c4.418,0,8,3.582,8,8S374.056,358.523,369.638,358.523z
	 M354.967,322.06c-4.418,0-8-3.582-8-8V137.275h-64.508c-4.418,0-8-3.582-8-8s3.582-8,8-8h72.51c4.418,0,8,3.582,8,8
	c0,0.053,0,0.106-0.001,0.159V314.06C362.967,318.479,359.385,322.06,354.967,322.06z M315.095,322.06h-44.56c-4.418,0-8-3.582-8-8
	V164.492c0-4.418,3.582-8,8-8h44.56c4.418,0,8,3.582,8,8V314.06C323.095,318.479,319.513,322.06,315.095,322.06z M278.535,306.06
	h28.56v-33.857h-28.56V306.06z M278.535,256.203h28.56v-33.854h-28.56V256.203z M278.535,206.348h28.56v-33.856h-28.56V206.348z
	 M229.874,322.06c-4.418,0-8-3.582-8-8V213.21h-66.111v100.85c0,4.418-3.582,8-8,8s-8-3.582-8-8V205.211c0-4.418,3.582-8,8-8
	c0.451,0,0.893,0.037,1.323,0.109c0.433-0.073,0.878-0.11,1.332-0.11h76.802c0.454,0,0.899,0.038,1.332,0.11
	c0.431-0.072,0.873-0.109,1.323-0.109c4.418,0,8,3.582,8,8V314.06C237.874,318.479,234.292,322.06,229.874,322.06z M107.103,322.06
	h-44.56c-4.418,0-8-3.582-8-8V164.492c0-4.418,3.582-8,8-8h44.56c4.418,0,8,3.582,8,8V314.06
	C115.103,318.479,111.521,322.06,107.103,322.06z M70.543,306.06h28.56v-33.857h-28.56V306.06z M70.543,256.203h28.56v-33.854
	h-28.56V256.203z M70.543,206.348h28.56v-33.856h-28.56V206.348z M22.67,322.06c-4.418,0-8-3.582-8-8V129.451
	c-0.001-0.059-0.002-0.118-0.002-0.176c0-4.418,3.582-8,8-8h72.511c4.418,0,8,3.582,8,8s-3.582,8-8,8H30.67V314.06
	C30.67,318.479,27.089,322.06,22.67,322.06z M188.819,279.677c-4.418,0-8-3.582-8-8v-15.602c0-4.418,3.582-8,8-8s8,3.582,8,8v15.602
	C196.819,276.095,193.237,279.677,188.819,279.677z M187.904,172.799c-42.371,0-76.842-34.471-76.842-76.842V27.115
	c0-4.418,3.582-8,8-8h137.685c4.418,0,8,3.582,8,8v68.842C264.746,138.328,230.275,172.799,187.904,172.799z M127.062,35.115v60.842
	c0,33.548,27.294,60.842,60.842,60.842c33.549,0,60.842-27.293,60.842-60.842V35.115H127.062z M188.822,129.26L188.822,129.26
	L188.822,129.26c-0.691,0-1.384-0.089-2.064-0.271l0,0c-0.005-0.001-0.011-0.003-0.016-0.004c-0.006-0.001-0.01-0.003-0.017-0.004
	c-0.006-0.002-0.011-0.003-0.016-0.004c-0.005-0.001-0.01-0.002-0.015-0.004l-0.001,0c-0.093-0.026-0.187-0.053-0.279-0.083
	l-35.591-11.119c-3.34-1.043-5.614-4.137-5.614-7.636V58.166c0-2.545,1.211-4.938,3.261-6.445c2.05-1.507,4.695-1.951,7.125-1.19
	l33.228,10.381l33.228-10.381c2.429-0.761,5.074-0.317,7.125,1.19c2.05,1.507,3.261,3.9,3.261,6.445v51.968
	c0,3.5-2.274,6.593-5.614,7.636l-35.614,11.126C190.425,129.141,189.621,129.26,188.822,129.26z M161.208,104.252l19.614,6.127
	V75.174l-19.614-6.127V104.252z M196.821,75.174v35.206l19.614-6.127V69.047L196.821,75.174z"/>
<g>
</g>
<g>
</g>
<g>
</g>
<g>
</g>
<g>
</g>
<g>
</g>
<g>
</g>
<g>
</g>
<g>
</g>
<g>
</g>
<g>
</g>
<g>
</g>
<g>
</g>
<g>
</g>
<g>
</g>
</svg>
