<svg version="1.1" xmlns="http://www.w3.org/2000/svg" xmlns:xlink="http://www.w3.org/1999/xlink" x="0px" y="0px"
	 width="75.692px" height="75.692px" viewBox="0 0 75.692 75.692" style="enable-background:new 0 0 75.692 75.692;"
	 xml:space="preserve">
<g>
	<g>
		<path d="M51.666,5.93c-8.547,0-15.5,6.953-15.5,15.5s6.953,15.5,15.5,15.5c4.684,0,9.063-2.084,12.023-5.718
			c1.094-1.342,1.928-2.837,2.518-4.444c2.373,0.167,4.109,0.915,5.17,2.229c1.938,2.401,1.168,6.072,1.16,6.104
			c-0.023,0.107-0.037,0.218-0.037,0.328v32c0,0.828,0.672,1.5,1.5,1.5s1.5-0.672,1.5-1.5V35.577
			c0.176-0.942,0.791-5.239-1.771-8.441c-1.512-1.887-3.785-2.985-6.756-3.3c0.123-0.794,0.19-1.597,0.19-2.406
			C67.166,12.883,60.215,5.93,51.666,5.93z M63.701,24.825c-0.465,1.646-1.25,3.158-2.336,4.492
			c-2.389,2.932-5.922,4.612-9.697,4.612c-6.893,0-12.5-5.607-12.5-12.5s5.607-12.5,12.5-12.5c6.895,0,12.5,5.607,12.5,12.5
			C64.166,22.583,64.012,23.726,63.701,24.825z"/>
		<path d="M31.834,64.481c0.964-0.41,1.86-0.982,2.656-1.691c0.796,0.709,1.694,1.281,2.657,1.691
			c4.739,3.506,9.352,5.281,13.713,5.281c12.057,0,17.764-13.188,18.002-13.748c0.231-0.554,0.114-1.191-0.304-1.625
			c-0.416-0.432-1.049-0.573-1.61-0.361c-3.121,1.186-5.951,1.781-8.414,1.781c-5.076,0-7.476-2.554-8.478-4.148
			c-0.184-0.433-0.399-0.862-0.655-1.289c-1.8-2.986-4.947-4.771-8.422-4.771c-2.417,0-4.708,0.877-6.489,2.448
			c-1.781-1.571-4.07-2.448-6.489-2.448c-3.474,0-6.622,1.785-8.423,4.771c-0.254,0.427-0.474,0.856-0.654,1.289
			c-1.002,1.599-3.401,4.148-8.479,4.148c-2.462,0-5.293-0.6-8.414-1.781c-0.56-0.211-1.194-0.07-1.611,0.361
			c-0.416,0.434-0.535,1.071-0.302,1.625c0.237,0.562,5.947,13.748,18.002,13.748C22.483,69.762,27.097,67.987,31.834,64.481z
			 M4.636,58.006c2.067,0.533,4.013,0.803,5.812,0.803c6.648,0,9.81-3.562,11.102-5.688c0.044-0.07,0.081-0.146,0.111-0.227
			c0.129-0.322,0.294-0.652,0.49-0.979c1.252-2.079,3.44-3.32,5.852-3.32c2.074,0,4.015,0.932,5.321,2.553
			c0.285,0.354,0.714,0.559,1.168,0.559s0.883-0.201,1.168-0.559c1.309-1.621,3.248-2.553,5.321-2.553
			c2.412,0,4.601,1.241,5.853,3.32c0.195,0.326,0.361,0.656,0.49,0.979c0.03,0.077,0.069,0.152,0.112,0.227
			c1.291,2.125,4.451,5.688,11.101,5.688c1.799,0,3.744-0.27,5.813-0.803c-2.285,3.531-6.795,8.756-13.486,8.756
			c-3.746,0-7.809-1.614-12.067-4.799c-0.104-0.078-0.22-0.143-0.343-0.19c-1.064-0.427-2.029-1.151-2.789-2.095
			c-0.284-0.354-0.715-0.561-1.17-0.561s-0.885,0.205-1.17,0.562c-0.757,0.942-1.721,1.667-2.788,2.094
			c-0.122,0.048-0.235,0.112-0.341,0.19c-4.262,3.185-8.323,4.799-12.069,4.799C11.433,66.762,6.921,61.538,4.636,58.006z"/>
	</g>
</g>
<g>
</g>
<g>
</g>
<g>
</g>
<g>
</g>
<g>
</g>
<g>
</g>
<g>
</g>
<g>
</g>
<g>
</g>
<g>
</g>
<g>
</g>
<g>
</g>
<g>
</g>
<g>
</g>
<g>
</g>
</svg>
