<svg version="1.1" xmlns="http://www.w3.org/2000/svg" xmlns:xlink="http://www.w3.org/1999/xlink" x="0px" y="0px"
	 viewBox="0 0 385.333 385.333" style="enable-background:new 0 0 385.333 385.333;" xml:space="preserve">
<g>
	<path d="M89,204.563h47c4.418,0,8-3.582,8-8v-40.009c0-4.418-3.582-8-8-8H89c-4.418,0-8,3.582-8,8v40.009
		C81,200.981,84.582,204.563,89,204.563z M97,164.554h31v24.009H97V164.554z"/>
	<path d="M248.667,204.563h47.667c4.418,0,8-3.582,8-8v-40.009c0-4.418-3.582-8-8-8h-47.667c-4.418,0-8,3.582-8,8v40.009
		C240.667,200.981,244.248,204.563,248.667,204.563z M256.667,164.554h31.667v24.009h-31.667V164.554z"/>
	<path d="M169,204.563h47.333c4.418,0,8-3.582,8-8v-40.009c0-4.418-3.582-8-8-8H169c-4.418,0-8,3.582-8,8v40.009
		C161,200.981,164.582,204.563,169,204.563z M177,164.554h31.333v24.009H177V164.554z"/>
	<path d="M377.333,356.229H369V189.438c0-97.23-79.103-176.333-176.333-176.333S16.333,92.207,16.333,189.438v166.792H8
		c-4.418,0-8,3.582-8,8s3.582,8,8,8h369.333c4.418,0,8-3.582,8-8S381.751,356.229,377.333,356.229z M192.667,29.104
		c88.116,0,159.849,71.452,160.322,159.458H336.86c-0.299-79.256-64.869-143.638-144.194-143.638S48.772,109.307,48.473,188.563
		H32.344C32.818,100.556,104.551,29.104,192.667,29.104z M32.333,204.563h24.139c4.418,0,8-3.582,8-8v-7.443
		c0-70.687,57.508-128.195,128.195-128.195s128.195,57.508,128.195,128.195v7.443c0,4.418,3.582,8,8,8H353v151.667h-48.667V235.896
		c0-4.418-3.582-8-8-8H89c-4.418,0-8,3.582-8,8v120.333H32.333V204.563z M288.333,291.729H97v-15.5h191.333V291.729z M97,307.729
		h191.333v17H97V307.729z M288.333,260.229H97v-16.333h191.333V260.229z M97,340.729h191.333v15.5H97V340.729z"/>
</g>
<g>
</g>
<g>
</g>
<g>
</g>
<g>
</g>
<g>
</g>
<g>
</g>
<g>
</g>
<g>
</g>
<g>
</g>
<g>
</g>
<g>
</g>
<g>
</g>
<g>
</g>
<g>
</g>
<g>
</g>
</svg>
