<svg version="1.1" xmlns="http://www.w3.org/2000/svg" xmlns:xlink="http://www.w3.org/1999/xlink" x="0px" y="0px"
	 viewBox="0 0 377.641 377.641" style="enable-background:new 0 0 377.641 377.641;" xml:space="preserve">
<path d="M369.641,364.354H8c-4.418,0-8-3.582-8-8s3.582-8,8-8h361.641c4.418,0,8,3.582,8,8S374.059,364.354,369.641,364.354z
	 M354.969,327.892c-4.418,0-8-3.582-8-8V143.106H282.46c-4.418,0-8-3.582-8-8s3.582-8,8-8h72.51c4.418,0,8,3.582,8,8
	c0,0.042,0,0.085-0.001,0.127v184.658C362.969,324.31,359.387,327.892,354.969,327.892z M315.093,327.892c-4.418,0-8-3.582-8-8
	v-100.85h-44.214v100.85c0,4.418-3.582,8-8,8s-8-3.582-8-8V211.043c0-4.418,3.582-8,8-8c0.327,0,0.649,0.02,0.967,0.058
	c0.32-0.039,0.647-0.059,0.979-0.059h56.322c0.331,0,0.658,0.02,0.979,0.059c0.316-0.038,0.64-0.058,0.967-0.058
	c4.418,0,8,3.582,8,8v108.849C323.093,324.31,319.511,327.892,315.093,327.892z M221.847,327.892H62.543c-4.418,0-8-3.582-8-8
	V206.146c0-4.418,3.582-8,8-8h159.304c4.418,0,8,3.582,8,8v113.745C229.847,324.31,226.265,327.892,221.847,327.892z
	 M70.543,311.892h143.304v-97.745H70.543V311.892z M22.672,327.892c-4.418,0-8-3.582-8-8V135.282
	c-0.001-0.059-0.002-0.118-0.002-0.176c0-4.418,3.582-8,8-8h72.511c4.418,0,8,3.582,8,8s-3.582,8-8,8H30.672v176.786
	C30.672,324.31,27.09,327.892,22.672,327.892z M114.779,296.631c-2.048,0-4.095-0.781-5.657-2.343
	c-3.124-3.124-3.124-8.189,0-11.313l51.227-51.226c3.126-3.125,8.19-3.123,11.314,0c3.124,3.124,3.124,8.189,0,11.313
	l-51.227,51.226C118.874,295.85,116.826,296.631,114.779,296.631z M284.985,285.508c-4.418,0-8-3.582-8-8v-15.601
	c0-4.418,3.582-8,8-8s8,3.582,8,8v15.601C292.985,281.926,289.403,285.508,284.985,285.508z M95.834,265.34
	c-2.048,0-4.095-0.781-5.657-2.343c-3.124-3.124-3.124-8.189,0-11.313l19.935-19.935c3.125-3.124,8.189-3.124,11.314,0
	c3.124,3.124,3.124,8.189,0,11.313l-19.935,19.935C99.929,264.559,97.882,265.34,95.834,265.34z M188.82,179.166
	c-42.182,0-76.499-34.317-76.499-76.499c0-28.39,15.684-54.322,40.932-67.675c3.905-2.067,8.746-0.574,10.812,3.332
	c2.065,3.906,0.573,8.746-3.332,10.812c-19.992,10.574-32.412,31.086-32.412,53.532c0,33.359,27.14,60.499,60.499,60.499
	s60.499-27.14,60.499-60.499c0-22.444-12.419-42.957-32.411-53.532c-3.906-2.066-5.397-6.907-3.331-10.812
	c2.065-3.906,6.907-5.397,10.812-3.331c25.247,13.355,40.931,39.287,40.931,67.675C265.319,144.848,231.002,179.166,188.82,179.166z
	 M188.82,140.229c-18.535,0-33.614-15.079-33.614-33.613V81.001c0-4.418,3.582-8,8-8h51.229c4.418,0,8,3.582,8,8V92.1h7.439
	c4.418,0,8,3.582,8,8s-3.582,8-8,8h-7.472C221.624,125.949,206.858,140.229,188.82,140.229z M171.206,89.001v17.615
	c0,9.712,7.901,17.613,17.613,17.613c9.713,0,17.615-7.901,17.615-17.613V89.001H171.206z M188.82,61.456c-4.418,0-8-3.582-8-8
	V21.287c0-4.418,3.582-8,8-8s8,3.582,8,8v32.169C196.82,57.874,193.238,61.456,188.82,61.456z"/>
<g>
</g>
<g>
</g>
<g>
</g>
<g>
</g>
<g>
</g>
<g>
</g>
<g>
</g>
<g>
</g>
<g>
</g>
<g>
</g>
<g>
</g>
<g>
</g>
<g>
</g>
<g>
</g>
<g>
</g>
</svg>
