<svg version="1.1" xmlns="http://www.w3.org/2000/svg" xmlns:xlink="http://www.w3.org/1999/xlink" x="0px" y="0px"
	 viewBox="0 0 72.929 72.929" style="enable-background:new 0 0 72.929 72.929;" xml:space="preserve">
<path d="M14.401,26.166c4.636,1.036,9.395,1.561,14.145,1.561s9.509-0.525,14.126-1.557
	c0.506-0.102,0.852-0.571,0.798-1.084c-0.664-6.372-5.191-11.605-10.966-13.287V10.75c0-0.552-0.448-1-1-1s-1,0.448-1,1v0.628
	c-0.645-0.091-1.297-0.154-1.961-0.154c-0.662,0-1.312,0.063-1.955,0.153V10.75c0-0.552-0.448-1-1-1s-1,0.448-1,1v1.048
	c-5.774,1.681-10.301,6.915-10.966,13.288C13.57,25.59,13.906,26.055,14.401,26.166z M24.588,13.9v2.774c0,0.552,0.448,1,1,1
	s1-0.448,1-1v-3.278c0.643-0.105,1.296-0.171,1.961-0.171c0.663,0,1.314,0.066,1.955,0.17v3.278c0,0.552,0.448,1,1,1s1-0.448,1-1
	v-2.775c4.482,1.532,8.006,5.558,8.854,10.508c-8.411,1.751-17.174,1.756-25.625,0C16.582,19.458,20.105,15.432,24.588,13.9z
	 M34.308,23.523c-1.889,0.422-3.827,0.636-5.761,0.636s-3.873-0.214-5.761-0.636l0.435-1.953c3.492,0.782,7.16,0.781,10.652,0
	c0.538-0.119,1.074,0.219,1.194,0.758C35.186,22.868,34.847,23.403,34.308,23.523z M12.999,30.287
	c0.018-0.614,0.073-2.483,1.434-2.998c1.343-0.51,2.699,0.843,2.957,1.119c0.377,0.404,0.356,1.037-0.047,1.414
	c-0.403,0.377-1.036,0.356-1.414-0.047c-0.224-0.236-0.555-0.479-0.758-0.565c-0.061,0.146-0.154,0.475-0.173,1.137
	c-0.092,3.121,2.284,3.996,2.385,4.031c0.309,0.109,0.553,0.364,0.64,0.68l0.04,0.145c0.017,0.06,0.027,0.121,0.033,0.183
	c0.706,8.41,7.346,11.131,10.451,11.131s9.745-2.721,10.45-11.131c0.005-0.062,0.016-0.123,0.033-0.183l0.04-0.145
	c0.089-0.321,0.332-0.577,0.648-0.683c0.093-0.033,2.469-0.908,2.377-4.028c-0.02-0.662-0.113-0.99-0.173-1.137
	c-0.214,0.092-0.563,0.356-0.758,0.565c-0.376,0.403-1.01,0.424-1.414,0.047c-0.403-0.377-0.424-1.01-0.047-1.414
	c0.258-0.276,1.615-1.627,2.957-1.119c1.361,0.514,1.416,2.383,1.434,2.998c0.095,3.212-1.774,5.012-3.149,5.728
	c-0.948,8.617-7.765,12.5-12.398,12.5c-4.633,0-11.45-3.883-12.399-12.5C14.773,35.299,12.904,33.499,12.999,30.287z M17.909,46.948
	c0.168,0.526-0.122,1.088-0.647,1.257C16.638,48.405,2,53.314,2,71.495c0,0.552-0.448,1-1,1s-1-0.448-1-1
	c0-19.676,16.488-25.143,16.654-25.196C17.181,46.134,17.741,46.422,17.909,46.948z M13.736,67.739v3.756c0,0.552-0.448,1-1,1
	s-1-0.448-1-1v-3.756c0-0.552,0.448-1,1-1S13.736,67.186,13.736,67.739z M42.476,65.486v6.009c0,0.552-0.448,1-1,1s-1-0.448-1-1
	v-6.009c0-0.552,0.448-1,1-1S42.476,64.933,42.476,65.486z M66.049,28.845c0.058,0.647,1.319,15.942-6.677,24.683
	c-3.537,3.866-8.337,5.827-14.267,5.827c-0.552,0-1-0.448-1-1s0.448-1,1-1c5.345,0,9.648-1.742,12.791-5.176
	c7.408-8.097,6.173-23.006,6.16-23.155c-0.049-0.55,0.357-1.036,0.907-1.085C65.518,27.892,66,28.295,66.049,28.845z M53.876,44.642
	c-3.56,2.919-7.877,3.514-10.802,3.514c-1.906,0-3.221-0.252-3.353-0.279c-0.542-0.108-0.892-0.634-0.784-1.175
	c0.107-0.542,0.636-0.894,1.175-0.787c0.073,0.015,7.373,1.393,12.509-2.83c3.466-2.85,5.224-7.611,5.224-14.152
	c0-0.552,0.448-1,1-1s1,0.448,1,1C59.844,36.111,57.836,41.396,53.876,44.642z M68.261,18.73c0-4.613-4.714-4.613-6.489-4.613
	s-6.489,0-6.489,4.613v2.245c0,3.578,2.911,6.489,6.489,6.489s6.489-2.911,6.489-6.489V18.73z M66.261,20.975
	c0,2.476-2.014,4.489-4.489,4.489c-2.476,0-4.489-2.014-4.489-4.489V18.73c0-1.613,0.751-2.613,4.489-2.613
	c3.738,0,4.489,1,4.489,2.613V20.975z M42.186,1.674c-0.091-0.37,0.035-0.759,0.325-1.004c0.292-0.245,0.696-0.304,1.044-0.153
	L57.433,6.55c0.312,0.136,0.534,0.421,0.588,0.757c0.054,0.336-0.066,0.677-0.319,0.904l-3.356,3.014l2.175,2.179
	c0.391,0.391,0.39,1.024-0.001,1.414c-0.391,0.391-1.024,0.39-1.414-0.001l-2.92-2.925c-0.194-0.194-0.3-0.459-0.292-0.734
	c0.007-0.274,0.127-0.533,0.332-0.717l2.982-2.678l-5.879-2.556c0.243,0.63,0.211,1.347-0.598,1.987
	c-0.567,0.449-1.768,1.446-2.46,2.664l1.103,4.462l1.332-1.125c0.422-0.356,1.052-0.304,1.409,0.118
	c0.356,0.422,0.304,1.053-0.118,1.409l-2.562,2.164c-0.183,0.155-0.413,0.236-0.646,0.236c-0.104,0-0.208-0.016-0.309-0.049
	c-0.329-0.106-0.579-0.375-0.662-0.711L42.186,1.674z M72.615,30.941c-0.193,0.183-0.44,0.273-0.687,0.273
	c-0.265,0-0.53-0.105-0.727-0.313l-3.708-3.925c-0.379-0.401-0.361-1.034,0.041-1.414c0.4-0.379,1.034-0.361,1.414,0.041
	l3.708,3.925C73.035,29.929,73.017,30.562,72.615,30.941z M19.03,28.527c-0.552,0-1,0.448-1,1c0,2.453,0.525,4.304,1.562,5.5
	c0.911,1.052,2.168,1.585,3.735,1.585c0,0,0.001,0,0.001,0c2.106,0,4.257-0.999,5.221-1.512c0.962,0.504,3.099,1.483,5.196,1.483
	c1.986,0,5.317-0.917,5.317-7.057c0-0.552-0.448-1-1-1H19.03z M33.746,34.584c-2.199,0-4.657-1.469-4.681-1.483
	c-0.321-0.193-0.723-0.193-1.042,0.003c-0.683,0.419-2.858,1.508-4.695,1.509h0c-0.975,0-1.702-0.293-2.224-0.895
	c-0.585-0.675-0.933-1.746-1.039-3.19h16.963C36.767,34.139,35.057,34.584,33.746,34.584z M37.771,50.002
	c0.384,0.396,0.374,1.03-0.022,1.414c-2.669,2.586-6.094,3.879-9.52,3.879s-6.851-1.293-9.52-3.879
	c-0.396-0.384-0.407-1.018-0.022-1.414c0.384-0.397,1.018-0.406,1.414-0.022c4.558,4.417,11.698,4.417,16.256,0
	C36.753,49.596,37.387,49.605,37.771,50.002z"/>
<g>
</g>
<g>
</g>
<g>
</g>
<g>
</g>
<g>
</g>
<g>
</g>
<g>
</g>
<g>
</g>
<g>
</g>
<g>
</g>
<g>
</g>
<g>
</g>
<g>
</g>
<g>
</g>
<g>
</g>
</svg>
