<svg version="1.1" xmlns="http://www.w3.org/2000/svg" xmlns:xlink="http://www.w3.org/1999/xlink" x="0px" y="0px"
	 viewBox="0 0 70.294 70.294" style="enable-background:new 0 0 70.294 70.294;" xml:space="preserve">
<path d="M13.265,29.538c0.024-0.81,0.096-3.274,1.778-3.909c1.674-0.631,3.436,1.136,3.772,1.496
	c0.377,0.404,0.356,1.037-0.047,1.414c-0.403,0.377-1.036,0.355-1.414-0.047c-0.588-0.624-1.391-1.075-1.605-0.991
	c-0.004,0.001-0.432,0.276-0.485,2.096c-0.142,4.818,3.559,6.155,3.716,6.21c0.312,0.108,0.556,0.364,0.643,0.683l0.057,0.208
	c0.016,0.059,0.027,0.12,0.032,0.181c1.038,12.374,10.847,16.376,15.435,16.376s14.396-4.003,15.435-16.376
	c0.005-0.062,0.016-0.123,0.033-0.183l0.058-0.208c0.089-0.321,0.332-0.577,0.648-0.682c0.152-0.053,3.852-1.39,3.71-6.208
	c-0.054-1.821-0.481-2.095-0.485-2.096c-0.241-0.091-1.079,0.429-1.605,0.991c-0.376,0.404-1.01,0.425-1.414,0.047
	c-0.403-0.377-0.425-1.01-0.047-1.414c0.336-0.36,2.102-2.129,3.772-1.496c1.681,0.635,1.753,3.099,1.777,3.909
	c0.135,4.567-2.615,7.038-4.493,7.927c-1.234,12.266-10.861,17.79-17.389,17.79s-16.155-5.524-17.389-17.79
	C15.88,36.575,13.131,34.104,13.265,29.538z M15.046,20.94c0.909-8.717,7.181-15.844,15.125-17.997V1c0-0.552,0.448-1,1-1
	s1,0.448,1,1v1.517c0.976-0.155,1.965-0.258,2.973-0.258c1.011,0,2.003,0.103,2.98,0.258V1c0-0.552,0.448-1,1-1s1,0.448,1,1v1.944
	c7.945,2.154,14.216,9.28,15.125,17.996c0.055,0.526-0.311,1.005-0.833,1.09c-6.279,1.405-12.78,2.123-19.268,2.123
	c-6.489,0-12.99-0.718-19.322-2.133C15.33,21.909,14.993,21.444,15.046,20.94z M17.148,20.262
	c11.903,2.52,24.197,2.506,35.998-0.001c-1.109-7.298-6.368-13.233-13.022-15.254v4.117c0,0.552-0.448,1-1,1s-1-0.448-1-1V4.534
	C37.151,4.361,36.16,4.26,35.15,4.26c-1.012,0-2.006,0.101-2.98,0.275v4.591c0,0.552-0.448,1-1,1s-1-0.448-1-1V5.009
	C23.514,7.031,18.257,12.966,17.148,20.262z M43.727,17.201c-0.12-0.539-0.652-0.876-1.194-0.758c-4.84,1.082-9.93,1.082-14.773,0
	c-0.539-0.117-1.073,0.219-1.194,0.758c-0.12,0.539,0.22,1.074,0.758,1.194c2.564,0.573,5.196,0.863,7.822,0.863
	c2.627,0,5.259-0.291,7.823-0.863C43.508,18.274,43.847,17.74,43.727,17.201z M48.98,26.127c0.552,0,1,0.448,1,1
	c0,8.531-4.558,9.805-7.275,9.805c-3.123,0-6.323-1.55-7.555-2.216c-1.235,0.677-4.454,2.257-7.588,2.258c0,0-0.001,0-0.001,0
	c-2.141,0-3.852-0.723-5.087-2.148c-1.433-1.654-2.16-4.245-2.16-7.698c0-0.552,0.448-1,1-1H48.98z M47.957,28.127H22.337
	c0.115,2.447,0.668,4.257,1.648,5.389c0.85,0.98,2.019,1.458,3.575,1.458c0,0,0,0,0,0c3.332,0,7.026-2.238,7.063-2.261
	c0.319-0.195,0.721-0.196,1.041-0.003c0.037,0.022,3.713,2.222,7.04,2.222C43.951,34.932,47.631,34.932,47.957,28.127z
	 M0.647,70.294c3.174,0,8.286,0,13.613,0V63.03l-3.356-11.79C6.112,54.865,0.647,61.029,0.647,70.294z M52.313,47.127
	C48.147,59.294,35.147,58.71,35.147,58.71s-13,0.583-17.167-11.583c0,0-2.364,0.912-5.345,2.888l3.59,12.612h18.922h0h18.907
	l3.612-12.607C54.682,48.041,52.313,47.127,52.313,47.127z M59.396,51.245l-3.362,11.735v7.313c5.327,0,10.439,0,13.613,0
	C69.647,61.033,64.187,54.871,59.396,51.245z M52.397,66.002h-34.5c-0.552,0-1,0.448-1,1s0.448,1,1,1h34.5c0.552,0,1-0.448,1-1
	S52.949,66.002,52.397,66.002z"/>
<g>
</g>
<g>
</g>
<g>
</g>
<g>
</g>
<g>
</g>
<g>
</g>
<g>
</g>
<g>
</g>
<g>
</g>
<g>
</g>
<g>
</g>
<g>
</g>
<g>
</g>
<g>
</g>
<g>
</g>
</svg>
