<svg xmlns="http://www.w3.org/2000/svg" xmlns:xlink="http://www.w3.org/1999/xlink" preserveAspectRatio="xMidYMid" width="71" height="87" viewBox="0 0 71 87">
  <defs>
    <style>
      .cls-1 {
        fill: #000;
        filter: url(#color-overlay-1);
        fill-rule: evenodd;
      }
    </style>

    <filter id="color-overlay-1" filterUnits="userSpaceOnUse">
      <feFlood flood-color="#111"/>
      <feComposite operator="in" in2="SourceGraphic"/>
      <feBlend in2="SourceGraphic" result="solidFill"/>
    </filter>
  </defs>
  <path d="M62.997,27.041 C62.965,12.102 50.967,-0.001 36.167,-0.001 C21.347,-0.001 9.333,12.067 9.333,26.950 C9.333,28.137 9.427,29.300 9.575,30.446 L-0.000,35.272 L-0.000,87.000 L23.333,75.242 L46.667,87.000 L70.000,75.242 L70.000,23.516 L62.997,27.041 ZM22.167,73.481 L2.333,83.476 L2.333,36.447 L9.943,32.612 C10.697,36.150 12.129,39.438 14.117,42.312 L14.115,42.312 L22.165,53.484 L22.165,73.481 L22.167,73.481 ZM45.500,84.062 L24.500,73.482 L24.500,56.720 L36.167,72.908 L45.500,60.059 L45.500,84.062 ZM36.167,68.925 L16.231,41.252 C13.359,37.221 11.667,32.284 11.667,26.948 C11.667,13.359 22.636,2.342 36.167,2.342 L36.167,2.354 C49.697,2.354 60.667,13.436 60.667,27.099 C60.667,32.463 58.975,37.426 56.103,41.483 L36.167,68.925 ZM67.667,74.069 L47.833,84.062 L47.833,56.849 L58.217,42.551 L58.215,42.548 C60.819,38.766 62.485,34.278 62.895,29.430 L67.665,27.041 L67.665,74.069 L67.667,74.069 ZM36.167,12.931 C28.435,12.931 22.167,19.248 22.167,27.041 C22.167,34.833 28.435,41.149 36.167,41.149 C43.899,41.149 50.167,34.833 50.167,27.041 C50.167,19.249 43.899,12.931 36.167,12.931 ZM36.167,38.817 C29.712,38.817 24.480,33.542 24.480,27.041 C24.480,20.538 29.712,15.266 36.167,15.266 C42.621,15.266 47.853,20.538 47.853,27.041 C47.852,33.542 42.620,38.817 36.167,38.817 Z" class="cls-1"/>
</svg>
