<svg xmlns="http://www.w3.org/2000/svg" xmlns:xlink="http://www.w3.org/1999/xlink" preserveAspectRatio="xMidYMid" width="87" height="71" viewBox="0 0 87 71">
  <defs>
    <style>
      .cls-1 {
        fill: #000;
        filter: url(#color-overlay-1);
        fill-rule: evenodd;
      }
    </style>

    <filter id="color-overlay-1" filterUnits="userSpaceOnUse">
      <feFlood flood-color="#111"/>
      <feComposite operator="in" in2="SourceGraphic"/>
      <feBlend in2="SourceGraphic" result="solidFill"/>
    </filter>
  </defs>
  <path d="M86.998,1.433 C86.997,1.453 86.995,1.474 86.993,1.494 C86.991,1.518 86.989,1.540 86.986,1.563 C86.986,1.565 86.986,1.569 86.985,1.571 L77.593,63.100 C77.531,63.507 77.289,63.865 76.934,64.072 C76.724,64.196 76.487,64.258 76.249,64.258 C76.086,64.258 75.923,64.229 75.767,64.170 L43.299,51.792 L39.869,61.197 L44.185,55.339 C44.632,54.733 45.483,54.605 46.086,55.054 C46.690,55.503 46.817,56.357 46.370,56.963 L36.437,70.446 C36.435,70.450 36.431,70.453 36.428,70.457 C36.424,70.462 36.421,70.467 36.417,70.473 C36.414,70.477 36.411,70.480 36.408,70.484 C36.372,70.530 36.332,70.572 36.290,70.613 C36.280,70.622 36.271,70.632 36.261,70.641 C36.248,70.653 36.235,70.666 36.221,70.677 C36.209,70.687 36.196,70.696 36.184,70.706 C36.162,70.723 36.141,70.740 36.118,70.756 C36.113,70.759 36.109,70.762 36.104,70.765 C36.104,70.766 36.104,70.766 36.103,70.766 C36.087,70.777 36.071,70.787 36.054,70.797 C36.029,70.812 36.003,70.827 35.977,70.841 C35.964,70.848 35.952,70.855 35.940,70.861 C35.937,70.862 35.935,70.863 35.933,70.864 C35.929,70.866 35.925,70.867 35.921,70.869 C35.895,70.881 35.869,70.892 35.842,70.903 C35.823,70.910 35.803,70.918 35.783,70.925 C35.776,70.927 35.770,70.931 35.764,70.932 C35.761,70.933 35.759,70.933 35.757,70.935 C35.743,70.939 35.729,70.941 35.715,70.945 C35.673,70.957 35.631,70.967 35.588,70.975 C35.576,70.977 35.564,70.981 35.552,70.983 C35.544,70.984 35.535,70.984 35.527,70.985 C35.472,70.993 35.416,70.997 35.360,70.998 C35.355,70.998 35.349,70.999 35.344,70.999 C35.344,70.999 35.344,70.999 35.344,70.999 L35.344,70.999 C35.279,70.999 35.214,70.994 35.149,70.984 C35.143,70.983 35.138,70.984 35.132,70.983 C35.130,70.982 35.127,70.981 35.124,70.981 C35.065,70.971 35.007,70.956 34.948,70.938 C34.934,70.935 34.921,70.930 34.908,70.925 C34.897,70.922 34.887,70.919 34.877,70.916 C34.829,70.898 34.783,70.877 34.738,70.855 C34.735,70.854 34.733,70.853 34.730,70.851 C34.722,70.848 34.715,70.842 34.707,70.838 C34.659,70.813 34.613,70.785 34.570,70.754 C34.561,70.748 34.553,70.742 34.544,70.736 C34.542,70.734 34.538,70.733 34.536,70.731 C34.534,70.730 34.533,70.728 34.531,70.727 C34.503,70.706 34.477,70.683 34.450,70.661 C34.442,70.653 34.433,70.647 34.425,70.639 C34.416,70.631 34.409,70.623 34.400,70.615 C34.392,70.607 34.385,70.599 34.377,70.591 C34.372,70.586 34.367,70.581 34.362,70.575 C34.351,70.564 34.339,70.553 34.329,70.541 C34.315,70.525 34.303,70.509 34.290,70.493 C34.279,70.479 34.268,70.466 34.257,70.453 C34.255,70.450 34.253,70.447 34.250,70.444 C34.248,70.441 34.246,70.438 34.244,70.435 C34.240,70.430 34.236,70.423 34.232,70.417 C34.201,70.372 34.173,70.326 34.148,70.278 C34.142,70.268 34.136,70.257 34.131,70.247 C34.105,70.194 34.081,70.141 34.062,70.087 C34.060,70.080 34.058,70.072 34.056,70.065 C34.054,70.062 34.053,70.058 34.051,70.055 L26.000,45.115 L0.872,35.408 C0.348,35.205 0.001,34.699 0.001,34.135 C-0.000,33.570 0.345,33.064 0.869,32.860 L85.151,0.091 C85.154,0.090 85.156,0.089 85.159,0.088 C85.170,0.083 85.181,0.079 85.192,0.075 C85.215,0.067 85.237,0.061 85.260,0.054 C85.279,0.049 85.298,0.043 85.317,0.039 C85.319,0.038 85.322,0.037 85.324,0.036 C85.347,0.031 85.369,0.027 85.392,0.023 C85.410,0.020 85.428,0.016 85.446,0.013 C85.459,0.011 85.473,0.010 85.486,0.008 C85.498,0.007 85.510,0.006 85.522,0.005 C85.541,0.003 85.559,0.001 85.577,0.001 C85.600,-0.000 85.622,0.000 85.645,0.000 C85.647,0.000 85.648,0.000 85.650,0.000 C85.660,0.000 85.671,-0.001 85.682,-0.000 C85.691,-0.000 85.700,0.000 85.709,0.001 C85.729,0.002 85.749,0.004 85.770,0.006 C85.793,0.008 85.817,0.011 85.840,0.014 C85.844,0.014 85.848,0.014 85.852,0.015 C85.866,0.017 85.880,0.021 85.894,0.024 C85.920,0.029 85.945,0.033 85.970,0.040 C85.982,0.043 85.994,0.046 86.006,0.050 C86.017,0.053 86.028,0.056 86.039,0.060 C86.058,0.065 86.077,0.071 86.096,0.078 C86.113,0.084 86.130,0.091 86.148,0.098 C86.157,0.102 86.165,0.105 86.174,0.109 C86.180,0.111 86.185,0.113 86.191,0.116 C86.199,0.119 86.208,0.123 86.216,0.127 C86.237,0.137 86.257,0.148 86.277,0.159 C86.295,0.168 86.314,0.178 86.332,0.188 C86.356,0.203 86.380,0.219 86.404,0.235 C86.417,0.244 86.430,0.252 86.443,0.262 C86.455,0.271 86.468,0.282 86.481,0.291 C86.485,0.295 86.489,0.297 86.493,0.300 C86.499,0.305 86.504,0.310 86.509,0.316 C86.513,0.318 86.517,0.322 86.521,0.325 C86.529,0.331 86.538,0.337 86.546,0.344 C86.547,0.346 86.548,0.347 86.549,0.348 C86.569,0.366 86.587,0.385 86.606,0.404 C86.615,0.413 86.624,0.422 86.632,0.431 C86.638,0.437 86.644,0.442 86.649,0.448 C86.661,0.461 86.672,0.476 86.683,0.490 C86.702,0.512 86.721,0.534 86.737,0.557 C86.738,0.558 86.739,0.559 86.740,0.560 C86.740,0.561 86.741,0.561 86.741,0.562 C86.747,0.571 86.753,0.580 86.759,0.589 C86.778,0.617 86.796,0.644 86.813,0.673 C86.818,0.682 86.822,0.690 86.827,0.698 C86.833,0.708 86.838,0.719 86.843,0.729 C86.854,0.750 86.865,0.770 86.875,0.791 C86.883,0.810 86.890,0.829 86.898,0.849 C86.898,0.849 86.899,0.849 86.899,0.849 C86.903,0.860 86.907,0.869 86.911,0.880 C86.915,0.890 86.920,0.901 86.923,0.913 C86.932,0.936 86.938,0.960 86.945,0.984 C86.950,1.000 86.956,1.018 86.960,1.034 C86.961,1.037 86.961,1.039 86.962,1.042 C86.968,1.066 86.972,1.091 86.976,1.115 C86.980,1.133 86.983,1.150 86.986,1.168 C86.988,1.179 86.989,1.191 86.991,1.204 C86.992,1.214 86.992,1.225 86.993,1.236 C86.994,1.238 86.994,1.241 86.994,1.243 C86.996,1.262 86.998,1.280 86.999,1.300 C87.000,1.322 86.999,1.343 86.999,1.366 C86.999,1.378 87.000,1.389 87.000,1.401 C86.999,1.412 86.999,1.422 86.998,1.433 ZM5.136,34.130 L27.576,42.799 C27.578,42.800 27.580,42.801 27.582,42.802 C27.951,42.945 28.254,43.247 28.386,43.654 L35.423,65.450 L41.190,49.637 C41.199,49.605 41.209,49.572 41.221,49.540 C41.293,49.350 41.402,49.187 41.537,49.054 L76.251,9.902 L39.160,36.960 C38.919,37.136 38.639,37.220 38.362,37.220 C37.942,37.220 37.527,37.025 37.261,36.658 C36.820,36.047 36.955,35.193 37.562,34.750 L76.390,6.425 L5.136,34.130 ZM44.824,49.453 L75.160,61.018 L83.602,5.718 L44.824,49.453 ZM32.320,41.950 C32.079,42.125 31.799,42.210 31.522,42.210 C31.102,42.210 30.687,42.015 30.421,41.647 C29.980,41.037 30.115,40.183 30.722,39.739 L33.365,37.812 C33.972,37.369 34.822,37.505 35.263,38.115 C35.704,38.725 35.570,39.579 34.962,40.021 L32.320,41.950 Z" class="cls-1"/>
</svg>
