<svg xmlns="http://www.w3.org/2000/svg" xmlns:xlink="http://www.w3.org/1999/xlink" preserveAspectRatio="xMidYMid" width="78" height="78" viewBox="0 0 78 78">
  <defs>
    <style>
      .cls-1 {
        fill: #000;
        filter: url(#color-overlay-1);
        fill-rule: evenodd;
      }
    </style>

    <filter id="color-overlay-1" filterUnits="userSpaceOnUse">
      <feFlood flood-color="#111"/>
      <feComposite operator="in" in2="SourceGraphic"/>
      <feBlend in2="SourceGraphic" result="solidFill"/>
    </filter>
  </defs>
  <path d="M77.767,65.451 C77.370,65.992 76.608,66.109 76.067,65.713 L57.057,51.787 L55.825,53.019 L53.856,54.987 C49.170,59.669 42.143,58.562 35.674,54.627 C33.247,53.151 30.897,51.277 28.796,49.177 C26.697,47.077 24.820,44.728 23.343,42.303 C19.400,35.836 18.280,28.815 22.937,24.163 L26.174,20.928 L13.079,3.067 L9.505,6.612 L12.537,10.750 L16.176,15.710 L19.814,20.671 C20.211,21.212 20.094,21.974 19.553,22.370 C19.011,22.766 18.249,22.649 17.853,22.109 L14.217,17.144 L10.579,12.185 L7.760,8.343 L7.166,8.932 L7.169,8.935 L7.118,8.986 C2.476,13.625 1.259,19.777 3.637,27.243 C6.107,34.995 12.390,44.142 22.655,54.477 L23.069,54.893 L23.071,54.891 C23.773,55.591 24.350,56.163 24.799,56.597 C34.767,66.256 43.626,72.172 51.142,74.471 C58.381,76.685 64.357,75.487 68.841,71.002 L68.902,70.944 L69.047,70.799 L69.640,70.187 L65.802,67.379 L60.838,63.743 L55.873,60.106 C55.332,59.710 55.215,58.948 55.611,58.407 C56.008,57.866 56.770,57.750 57.311,58.146 L62.276,61.782 L67.240,65.418 L72.205,69.052 C72.230,69.070 72.242,69.098 72.266,69.118 C72.286,69.136 72.312,69.142 72.332,69.161 C72.368,69.196 72.383,69.243 72.414,69.281 C72.471,69.351 72.523,69.419 72.562,69.498 C72.593,69.561 72.612,69.624 72.631,69.690 C72.656,69.774 72.677,69.855 72.684,69.943 C72.689,70.011 72.682,70.076 72.676,70.144 C72.668,70.231 72.657,70.313 72.630,70.397 C72.608,70.467 72.574,70.529 72.539,70.595 C72.512,70.646 72.502,70.703 72.467,70.751 C72.448,70.777 72.419,70.789 72.398,70.813 C72.381,70.834 72.374,70.860 72.355,70.880 L70.790,72.495 L70.785,72.500 L70.635,72.650 L70.566,72.727 C65.401,77.891 58.604,79.293 50.436,76.794 C42.547,74.382 33.351,68.270 23.102,58.339 C22.396,57.656 21.809,57.077 21.346,56.614 L21.349,56.612 L21.346,56.610 L20.930,56.191 C10.388,45.576 3.909,36.097 1.320,27.977 C-1.358,19.569 0.065,12.586 5.393,7.261 L5.444,7.211 L5.446,7.213 L5.449,7.211 L12.365,0.350 C12.408,0.306 12.454,0.268 12.502,0.233 C13.043,-0.163 13.805,-0.047 14.202,0.494 L28.699,20.260 C29.111,20.737 29.091,21.463 28.638,21.916 L24.662,25.889 C20.958,29.592 22.040,35.493 25.422,41.038 C26.789,43.283 28.542,45.475 30.524,47.455 C32.505,49.436 34.698,51.188 36.942,52.552 C42.491,55.929 48.398,56.996 52.130,53.265 L54.099,51.297 L56.069,49.329 L56.071,49.332 C56.488,48.916 57.159,48.852 57.649,49.210 L77.505,63.752 C78.046,64.149 78.163,64.910 77.767,65.451 ZM70.223,32.136 C69.563,32.263 68.922,31.834 68.795,31.174 C68.259,28.477 67.324,25.887 66.034,23.482 L66.001,23.419 C64.715,21.037 63.076,18.833 61.127,16.885 L61.122,16.880 C59.158,14.920 56.930,13.267 54.524,11.979 C52.123,10.694 49.526,9.757 46.825,9.219 C46.165,9.092 45.735,8.450 45.862,7.792 C45.992,7.132 46.632,6.703 47.290,6.830 C50.222,7.411 53.043,8.434 55.667,9.836 C58.292,11.243 60.713,13.038 62.840,15.161 L62.845,15.166 C64.951,17.274 66.732,19.668 68.135,22.263 L68.173,22.332 C69.583,24.952 70.602,27.774 71.186,30.709 C71.313,31.369 70.884,32.009 70.223,32.136 ZM47.374,14.320 C49.320,14.846 51.185,15.628 52.918,16.631 C54.666,17.645 56.277,18.881 57.702,20.306 C59.128,21.730 60.365,23.340 61.376,25.087 C62.382,26.819 63.165,28.683 63.691,30.628 C63.864,31.278 63.477,31.946 62.827,32.118 C62.177,32.291 61.508,31.905 61.336,31.255 C60.866,29.515 60.167,27.850 59.270,26.303 C58.373,24.757 57.263,23.317 55.977,22.030 C54.689,20.742 53.248,19.632 51.701,18.736 C50.156,17.840 48.489,17.142 46.746,16.674 C46.096,16.502 45.710,15.834 45.883,15.184 C46.055,14.534 46.724,14.148 47.374,14.320 ZM54.496,27.799 C55.055,28.630 55.543,29.523 55.944,30.465 C56.206,31.083 55.919,31.798 55.301,32.060 C54.684,32.321 53.967,32.035 53.706,31.418 C53.370,30.630 52.956,29.871 52.476,29.160 C51.991,28.442 51.437,27.774 50.835,27.169 L50.832,27.172 C50.220,26.560 49.551,26.006 48.840,25.529 C48.124,25.044 47.369,24.630 46.591,24.300 C45.974,24.041 45.684,23.328 45.944,22.710 C46.203,22.093 46.917,21.804 47.534,22.063 C48.484,22.467 49.381,22.954 50.204,23.510 C51.058,24.084 51.848,24.737 52.560,25.447 L52.557,25.450 L52.560,25.453 C53.279,26.171 53.932,26.961 54.496,27.799 Z" class="cls-1"/>
</svg>
