<svg version="1.1" xmlns="http://www.w3.org/2000/svg" xmlns:xlink="http://www.w3.org/1999/xlink" x="0px" y="0px"
	 viewBox="0 0 346.475 346.475" style="enable-background:new 0 0 346.475 346.475;" xml:space="preserve">
<g>
	<path d="M338.975,213.658H190.992V72.37h95.754v117.607c0,4.143,3.357,7.5,7.5,7.5s7.5-3.357,7.5-7.5V64.87
		c0-4.143-3.357-7.5-7.5-7.5H183.492c-4.143,0-7.5,3.357-7.5,7.5v148.788h-29.729V47.935c0-4.143-3.357-7.5-7.5-7.5h-8.889v-25.98
		c0-4.143-3.357-7.5-7.5-7.5H23.889c-4.143,0-7.5,3.357-7.5,7.5v10.3c0,4.143,3.357,7.5,7.5,7.5s7.5-3.357,7.5-7.5v-2.8h83.486
		v18.48H7.5c-4.143,0-7.5,3.357-7.5,7.5v284.086c0,4.143,3.357,7.5,7.5,7.5h131.264h44.756c4.143,0,7.5-3.357,7.5-7.5
		s-3.357-7.5-7.5-7.5h-37.256v-95.862h185.211v95.862h-30.816c-6-29.024-31.463-50.153-61.789-50.153
		c-18.513,0-36.024,8.088-48.046,22.189c-2.687,3.152-2.31,7.886,0.843,10.573c3.152,2.686,7.887,2.309,10.573-0.843
		c9.166-10.753,22.518-16.92,36.63-16.92c24.883,0,45.47,18.65,47.886,43.383c0.376,3.841,3.605,6.771,7.465,6.771h44.755
		c4.143,0,7.5-3.357,7.5-7.5V221.158C346.475,217.016,343.117,213.658,338.975,213.658z M15,55.435h116.264v165.724v103.362H15
		V55.435z"/>
	<path d="M258.97,89.769h-40.2c-4.143,0-7.5,3.357-7.5,7.5s3.357,7.5,7.5,7.5h40.2c4.143,0,7.5-3.357,7.5-7.5
		S263.112,89.769,258.97,89.769z"/>
	<path d="M258.97,120.123h-40.2c-4.143,0-7.5,3.357-7.5,7.5s3.357,7.5,7.5,7.5h40.2c4.143,0,7.5-3.357,7.5-7.5
		S263.112,120.123,258.97,120.123z"/>
	<path d="M258.97,150.478h-40.2c-4.143,0-7.5,3.357-7.5,7.5s3.357,7.5,7.5,7.5h40.2c4.143,0,7.5-3.357,7.5-7.5
		S263.112,150.478,258.97,150.478z"/>
	<path d="M258.97,180.833h-40.2c-4.143,0-7.5,3.357-7.5,7.5s3.357,7.5,7.5,7.5h40.2c4.143,0,7.5-3.357,7.5-7.5
		S263.112,180.833,258.97,180.833z"/>
	<path d="M36.217,72.147c-1.979,0-3.91,0.8-5.31,2.199c-1.391,1.391-2.19,3.33-2.19,5.301c0,1.97,0.8,3.909,2.19,5.3
		c1.399,1.399,3.33,2.2,5.31,2.2c1.971,0,3.9-0.801,5.3-2.2c1.4-1.391,2.2-3.33,2.2-5.3c0-1.971-0.8-3.91-2.2-5.301
		C40.117,72.947,38.188,72.147,36.217,72.147z"/>
	<path d="M73.137,72.147c-1.979,0-3.909,0.8-5.31,2.199c-1.39,1.391-2.2,3.32-2.2,5.301c0,1.97,0.811,3.909,2.2,5.3
		c1.4,1.399,3.33,2.2,5.31,2.2c1.971,0,3.9-0.801,5.301-2.2c1.39-1.391,2.199-3.33,2.199-5.3c0-1.971-0.81-3.91-2.199-5.301
		C77.037,72.947,75.107,72.147,73.137,72.147z"/>
	<path d="M109.228,72.147c-1.971,0-3.91,0.8-5.301,2.199c-1.399,1.391-2.199,3.32-2.199,5.301c0,1.979,0.8,3.909,2.199,5.3
		c1.391,1.399,3.33,2.2,5.301,2.2c1.979,0,3.909-0.801,5.3-2.2c1.399-1.391,2.2-3.32,2.2-5.3c0-1.98-0.801-3.91-2.2-5.301
		C113.137,72.947,111.207,72.147,109.228,72.147z"/>
	<path d="M36.217,109.467c-1.979,0-3.91,0.8-5.31,2.19c-1.391,1.399-2.19,3.34-2.19,5.31c0,1.971,0.8,3.91,2.19,5.3
		c1.399,1.4,3.33,2.2,5.31,2.2c1.971,0,3.9-0.8,5.3-2.2c1.4-1.39,2.2-3.329,2.2-5.3c0-1.97-0.8-3.91-2.2-5.31
		C40.117,110.267,38.188,109.467,36.217,109.467z"/>
	<path d="M73.137,124.467c1.971,0,3.9-0.8,5.301-2.2c1.39-1.39,2.189-3.329,2.189-5.3c0-1.97-0.8-3.91-2.189-5.31
		c-1.4-1.391-3.33-2.19-5.301-2.19c-1.979,0-3.909,0.8-5.31,2.19c-1.39,1.399-2.19,3.34-2.19,5.31c0,1.971,0.801,3.91,2.19,5.3
		C69.228,123.667,71.157,124.467,73.137,124.467z"/>
	<path d="M109.228,109.467c-1.971,0-3.91,0.8-5.301,2.19c-1.399,1.399-2.199,3.34-2.199,5.31c0,1.971,0.8,3.91,2.199,5.3
		c1.4,1.4,3.33,2.2,5.301,2.2c1.979,0,3.909-0.8,5.31-2.2c1.39-1.39,2.19-3.329,2.19-5.3c0-1.97-0.801-3.91-2.19-5.31
		C113.137,110.267,111.207,109.467,109.228,109.467z"/>
	<path d="M36.217,146.787c-1.979,0-3.91,0.8-5.31,2.2c-1.391,1.39-2.19,3.33-2.19,5.3c0,1.979,0.8,3.91,2.19,5.3
		c1.399,1.4,3.33,2.2,5.31,2.2c1.971,0,3.9-0.8,5.3-2.2c1.4-1.39,2.2-3.33,2.2-5.3s-0.8-3.9-2.2-5.3
		C40.117,147.587,38.188,146.787,36.217,146.787z"/>
	<path d="M67.827,159.587c1.4,1.4,3.33,2.2,5.31,2.2c1.971,0,3.9-0.8,5.301-2.2c1.39-1.39,2.189-3.32,2.189-5.3
		c0-1.98-0.8-3.91-2.189-5.3c-1.4-1.4-3.33-2.2-5.301-2.2c-1.979,0-3.909,0.8-5.31,2.2c-1.39,1.39-2.19,3.33-2.19,5.3
		S66.438,158.197,67.827,159.587z"/>
	<path d="M109.228,146.787c-1.971,0-3.91,0.8-5.301,2.2c-1.399,1.39-2.199,3.33-2.199,5.3c0,1.979,0.8,3.91,2.199,5.3
		c1.4,1.4,3.33,2.2,5.301,2.2c1.979,0,3.909-0.8,5.3-2.2c1.399-1.39,2.2-3.33,2.2-5.3s-0.801-3.9-2.2-5.3
		C113.137,147.587,111.207,146.787,109.228,146.787z"/>
	<path d="M36.217,184.107c-1.979,0-3.91,0.8-5.31,2.199c-1.391,1.391-2.19,3.32-2.19,5.301c0,1.97,0.8,3.909,2.19,5.3
		c1.399,1.399,3.34,2.2,5.31,2.2c1.971,0,3.9-0.801,5.3-2.2c1.4-1.391,2.2-3.33,2.2-5.3c0-1.98-0.8-3.91-2.2-5.301
		C40.127,184.907,38.188,184.107,36.217,184.107z"/>
	<path d="M67.827,196.907c1.4,1.399,3.33,2.2,5.3,2.2c1.98,0,3.91-0.801,5.311-2.2c1.39-1.391,2.189-3.33,2.189-5.3
		c0-1.98-0.8-3.91-2.189-5.301c-1.4-1.399-3.33-2.199-5.311-2.199c-1.97,0-3.899,0.8-5.3,2.199c-1.39,1.391-2.19,3.33-2.19,5.301
		C65.637,193.577,66.438,195.517,67.827,196.907z"/>
	<path d="M109.228,184.107c-1.971,0-3.9,0.8-5.301,2.199c-1.399,1.391-2.199,3.32-2.199,5.301c0,1.97,0.8,3.909,2.199,5.3
		c1.4,1.399,3.33,2.2,5.301,2.2c1.97,0,3.909-0.801,5.31-2.2c1.39-1.4,2.19-3.33,2.19-5.3c0-1.971-0.801-3.91-2.19-5.301
		C113.137,184.907,111.207,184.107,109.228,184.107z"/>
	<path d="M36.217,221.427c-1.979,0-3.91,0.801-5.31,2.2c-1.391,1.39-2.19,3.33-2.19,5.3c0,1.98,0.8,3.91,2.19,5.301
		c1.399,1.399,3.33,2.199,5.31,2.199c1.971,0,3.9-0.8,5.3-2.199c1.4-1.391,2.2-3.33,2.2-5.301c0-1.97-0.8-3.899-2.2-5.3
		C40.127,222.228,38.188,221.427,36.217,221.427z"/>
	<path d="M73.137,221.427c-1.979,0-3.909,0.801-5.31,2.2c-1.39,1.39-2.2,3.33-2.2,5.3c0,1.98,0.811,3.91,2.2,5.301
		c1.4,1.399,3.33,2.199,5.31,2.199c1.971,0,3.9-0.8,5.301-2.199c1.39-1.391,2.199-3.32,2.199-5.301c0-1.97-0.81-3.91-2.199-5.3
		C77.037,222.228,75.107,221.427,73.137,221.427z"/>
	<path d="M109.228,221.427c-1.971,0-3.91,0.801-5.301,2.2c-1.399,1.39-2.199,3.33-2.199,5.3c0,1.98,0.8,3.91,2.199,5.301
		c1.4,1.399,3.33,2.199,5.301,2.199c1.979,0,3.909-0.8,5.31-2.199c1.39-1.391,2.19-3.33,2.19-5.301c0-1.97-0.801-3.899-2.19-5.3
		C113.137,222.228,111.207,221.427,109.228,221.427z"/>
	<path d="M36.217,258.747c-1.979,0-3.91,0.8-5.31,2.19c-1.391,1.399-2.19,3.34-2.19,5.31s0.8,3.91,2.19,5.3
		c1.399,1.4,3.33,2.2,5.31,2.2c1.971,0,3.9-0.8,5.3-2.2c1.4-1.399,2.2-3.33,2.2-5.3s-0.8-3.91-2.2-5.31
		C40.117,259.547,38.188,258.747,36.217,258.747z"/>
	<path d="M73.137,258.747c-1.979,0-3.909,0.8-5.31,2.19c-1.39,1.399-2.19,3.34-2.19,5.31s0.801,3.91,2.19,5.3
		c1.4,1.4,3.33,2.2,5.31,2.2c1.971,0,3.9-0.8,5.301-2.2c1.39-1.399,2.199-3.33,2.199-5.3s-0.81-3.91-2.199-5.31
		C77.037,259.547,75.107,258.747,73.137,258.747z"/>
	<path d="M109.228,258.747c-1.971,0-3.91,0.8-5.301,2.19c-1.399,1.399-2.199,3.34-2.199,5.31s0.8,3.91,2.199,5.3
		c1.391,1.4,3.33,2.2,5.301,2.2c1.979,0,3.909-0.8,5.31-2.2c1.39-1.39,2.19-3.33,2.19-5.3s-0.801-3.91-2.19-5.31
		C113.137,259.547,111.207,258.747,109.228,258.747z"/>
</g>
<g>
</g>
<g>
</g>
<g>
</g>
<g>
</g>
<g>
</g>
<g>
</g>
<g>
</g>
<g>
</g>
<g>
</g>
<g>
</g>
<g>
</g>
<g>
</g>
<g>
</g>
<g>
</g>
<g>
</g>
</svg>
