<svg version="1.1" xmlns="http://www.w3.org/2000/svg" xmlns:xlink="http://www.w3.org/1999/xlink" x="0px" y="0px"
	 viewBox="0 0 360.364 360.364" style="enable-background:new 0 0 360.364 360.364;" xml:space="preserve">
<g>
	<path d="M26.966,201.537c0.478,3.331,3.117,5.937,6.454,6.371l48.73,6.357c4.116,0.538,7.872-2.359,8.407-6.466
		c0.536-4.107-2.359-7.872-6.467-8.407l-43.085-5.621l-12.726-88.669l63.855-28.12l8.449,58.871l11.012,76.725l0.001,0.003
		l2.06,14.35c0.283,1.969,1.335,3.745,2.928,4.938c1.305,0.978,2.884,1.497,4.496,1.497c0.354,0,0.71-0.025,1.065-0.076l35.952-5.16
		c4.1-0.589,6.947-4.39,6.358-8.489l-1.251-8.716l72.898-32.104c3.08-1.356,4.879-4.599,4.401-7.93l-10.179-70.922
		c-0.588-4.101-4.392-6.942-8.489-6.358c-4.1,0.588-6.947,4.39-6.358,8.489l9.37,65.287l-63.855,28.121l-12.723-88.648
		l-5.334-37.167l74.832,9.763c4.111,0.544,7.871-2.359,8.407-6.466c0.536-4.107-2.359-7.872-6.467-8.407l-78.985-10.306
		l-1.251-8.718c-0.283-1.969-1.335-3.745-2.928-4.938c-1.593-1.192-3.593-1.701-5.562-1.421l-35.952,5.16
		c-4.1,0.589-6.947,4.39-6.358,8.489l1.251,8.717L17.023,93.669c-3.08,1.356-4.879,4.599-4.401,7.93L26.966,201.537z
		 M125.688,55.112l8.621,60.064l13.239,92.242l0.001,0.005l0.994,6.922l-21.104,3.029l-11.427-79.617L105.578,65.07
		c0,0,0-0.002-0.001-0.003l-0.994-6.926L125.688,55.112z"/>
	<path d="M308.933,110.894h-54.435c-4.142,0-7.5,3.357-7.5,7.5v125.503c0,0-0.001,0.013-0.001,0.02c0,4.143,3.358,7.5,7.5,7.5h0.001
		h89.897c-2.937,10.59-12.23,18.564-23.493,19.542c-5.794-10.267-16.801-17.219-29.407-17.219c-12.649,0-23.688,6.999-29.467,17.322
		H102.714c-5.779-10.324-16.818-17.322-29.467-17.322s-23.688,6.999-29.467,17.322H15v-19.646h198.682c4.142,0,7.5-3.357,7.5-7.5
		s-3.358-7.5-7.5-7.5H7.5c-4.142,0-7.5,3.357-7.5,7.5v34.646c0,4.143,3.358,7.5,7.5,7.5h32.034c-0.02,0.474-0.036,0.949-0.036,1.428
		c0,18.609,15.14,33.75,33.75,33.75s33.75-15.141,33.75-33.75c0-0.479-0.016-0.954-0.036-1.428H257.78
		c-0.02,0.474-0.036,0.949-0.036,1.428c0,18.609,15.14,33.75,33.75,33.75s33.75-15.141,33.75-33.75c0-0.657-0.024-1.309-0.061-1.957
		c19.914-3.182,35.181-20.474,35.181-41.27v-0.347v-81.591C360.364,133.967,337.292,110.894,308.933,110.894z M73.248,306.24
		c-10.339,0-18.75-8.411-18.75-18.75s8.411-18.75,18.75-18.75s18.75,8.411,18.75,18.75S83.586,306.24,73.248,306.24z
		 M291.494,306.24c-10.339,0-18.75-8.411-18.75-18.75s8.411-18.75,18.75-18.75s18.75,8.411,18.75,18.75
		S301.833,306.24,291.494,306.24z M345.364,162.326v11.408h-55.033v-47.84h18.602C329.021,125.894,345.364,142.237,345.364,162.326z
		 M261.998,236.417V125.894h13.333v55.34c0,4.143,3.358,7.5,7.5,7.5h62.533v47.683H261.998z"/>
</g>
<g>
</g>
<g>
</g>
<g>
</g>
<g>
</g>
<g>
</g>
<g>
</g>
<g>
</g>
<g>
</g>
<g>
</g>
<g>
</g>
<g>
</g>
<g>
</g>
<g>
</g>
<g>
</g>
<g>
</g>
</svg>
