<svg version="1.1" xmlns="http://www.w3.org/2000/svg" xmlns:xlink="http://www.w3.org/1999/xlink" x="0px" y="0px"
	 viewBox="0 0 369.276 369.276" style="enable-background:new 0 0 369.276 369.276;" xml:space="preserve">
<g>
	<path d="M315.075,201.045v-53.517c0-4.143-3.358-7.5-7.5-7.5h-34.167V99.171h23.081c4.142,0,7.5-3.357,7.5-7.5v-27.42
		c0-4.143-3.358-7.5-7.5-7.5s-7.5,3.357-7.5,7.5v19.92H15v-12.42h220.328c4.142,0,7.5-3.357,7.5-7.5s-3.358-7.5-7.5-7.5H112.549
		V33.615c0-4.143-3.358-7.5-7.5-7.5H54.712c-4.142,0-7.5,3.357-7.5,7.5s3.358,7.5,7.5,7.5h42.837v15.637H7.5
		c-4.142,0-7.5,3.357-7.5,7.5v27.42c0,4.143,3.358,7.5,7.5,7.5h39.712v43.325c0,0.001,0,0.003,0,0.005v50.333
		c0,0.001,0,0.003,0,0.005v50.333c0,0.001,0,0.003,0,0.005v44.142c-9.717,3.299-16.732,12.503-16.732,23.322v25.021
		c0,4.143,3.358,7.5,7.5,7.5h84.198c4.142,0,7.5-3.357,7.5-7.5V310.64c0-10.966-7.205-20.276-17.129-23.457v-44.007
		c0-0.001,0-0.003,0-0.005v-50.335v-50.335c0-0.001,0-0.003,0-0.005V99.171h145.859v40.857h-34.167c-4.142,0-7.5,3.357-7.5,7.5
		v53.517c0,4.143,3.358,7.5,7.5,7.5h83.333C311.717,208.545,315.075,205.188,315.075,201.045z M97.549,235.674h-24.73l10.549-10.549
		c2.929-2.93,2.929-7.678,0-10.607c-2.929-2.928-7.678-2.928-10.606,0l-10.549,10.549v-24.731h35.337V235.674z M62.212,149.999
		h24.731l-24.731,24.731V149.999z M72.819,185.336l24.731-24.731v24.731H72.819z M97.549,134.999h-24.73l15.211-15.211
		c2.929-2.93,2.929-7.678,0-10.607c-2.929-2.928-7.678-2.928-10.606,0l-15.211,15.211v-24.73h35.337V134.999z M62.212,250.674
		h24.731l-24.731,24.731V250.674z M97.549,261.281v24.731H72.819L97.549,261.281z M114.678,328.162H45.48V310.64
		c0-5.309,4.319-9.628,9.628-9.628h49.941c5.31,0,9.629,4.319,9.629,9.628V328.162z M300.075,193.545h-68.333v-38.517h68.333
		V193.545z"/>
	<path d="M361.776,243.862h-42.149h-42.15c-4.142,0-7.5,3.357-7.5,7.5v34.65h-34.65c-4.142,0-7.5,3.357-7.5,7.5v42.149
		c0,4.143,3.358,7.5,7.5,7.5h42.15h42.15h42.149c4.142,0,7.5-3.357,7.5-7.5v-42.149v-42.15
		C369.276,247.219,365.918,243.862,361.776,243.862z M354.276,286.012h-27.149v-27.15h27.149V286.012z M284.977,258.862h27.15v27.15
		h-27.15V258.862z M242.827,301.012h27.15v27.149h-27.15V301.012z M284.977,301.012h27.15v27.149h-27.15V301.012z M354.276,328.162
		h-27.149v-27.149h27.149V328.162z"/>
</g>
<g>
</g>
<g>
</g>
<g>
</g>
<g>
</g>
<g>
</g>
<g>
</g>
<g>
</g>
<g>
</g>
<g>
</g>
<g>
</g>
<g>
</g>
<g>
</g>
<g>
</g>
<g>
</g>
<g>
</g>
</svg>
