<svg version="1.1" xmlns="http://www.w3.org/2000/svg" xmlns:xlink="http://www.w3.org/1999/xlink" x="0px" y="0px"
	 viewBox="0 0 174.274 174.274" style="enable-background:new 0 0 174.274 174.274;" xml:space="preserve">
<g>
	<g>
		<g>
			<path d="M90.329,151.259l-5.008-6.23c-17.327-21.548-17.349-21.585-17.52-21.853
				c-3.598-5.205-2.532-12.549,2.502-16.603c5.142-4.136,12.616-3.527,17.034,1.359c0.13,0.156,5.691,7.061,11.253,13.967
				c5.443,6.764,10.885,13.529,11.097,13.789l-5.851,4.856c-0.048-0.059-5.61-6.965-11.171-13.87
				c-5.443-6.764-10.885-13.529-11.097-13.789c-1.589-1.767-4.503-1.997-6.497-0.394c-1.945,1.574-2.361,4.418-0.943,6.475
				c0.427,0.542,10.726,13.343,17.119,21.303c2.922,3.631,5.038,6.26,5.079,6.311L90.329,151.259z"/>
			<path d="M86.56,119.175c-0.438-0.527-33.224-41.307-33.406-41.559c-3.727-5.398-2.651-12.749,2.391-16.811
				c5.131-4.136,12.608-3.52,17.019,1.389c0.193,0.208,22.216,27.563,22.398,27.8l-5.97,4.708
				c-0.356-0.446-21.563-26.79-22.179-27.533c-1.619-1.804-4.515-2.042-6.501-0.438c-1.957,1.574-2.376,4.425-0.954,6.49
				c0.527,0.661,32.526,40.445,33.057,41.099L86.56,119.175z"/>
			<path d="M111.74,95.525c-0.123-0.141-13.432-16.685-13.729-17.13c-3.642-5.265-2.569-12.608,2.473-16.67
				c5.135-4.143,12.616-3.542,17.022,1.374c0.108,0.119,0.126,0.141,12.396,15.378l5.933,7.373l-5.847,4.856
				c-0.037-0.045-2.71-3.364-6.007-7.455c-5.172-6.423-11.895-14.776-12.233-15.185c-1.6-1.782-4.492-2.027-6.497-0.416
				c-1.953,1.574-2.372,4.418-0.95,6.475c0.49,0.624,12.983,16.165,13.314,16.573L111.74,95.525z"/>
			<path d="M98.344,106.344c-0.174-0.215-22.32-27.741-22.532-28.045c-3.676-5.331-2.603-12.675,2.432-16.737
				c5.161-4.136,12.63-3.52,17.022,1.374c0.204,0.215,22.272,27.637,22.432,27.852l-6,4.67
				c-0.427-0.542-21.544-26.776-22.179-27.548c-1.615-1.789-4.515-2.035-6.508-0.423c-1.949,1.574-2.369,4.425-0.947,6.482
				c0.531,0.668,21.674,26.954,22.131,27.511L98.344,106.344z"/>
		</g>
		<path d="M126.995,168.798c-1.712,0-3.43-0.089-5.157-0.282c-12.512-1.351-23.746-7.5-31.635-17.301
			l5.925-4.767c6.616,8.22,16.035,13.373,26.527,14.509c10.496,1.136,20.791-1.879,29.014-8.495
			c14.654-11.791,19.191-32.248,10.871-48.762c-2.384-2.97-21.325-26.523-21.931-27.251c-1.604-1.789-4.492-2.035-6.493-0.431
			c-1.957,1.574-2.376,4.425-0.954,6.482c1.162,1.686,0.787,3.995-0.85,5.22c-2.216,1.656-3.984,0.549-5.383-0.921l-0.026,0.022
			c-0.037-0.059-0.074-0.111-0.111-0.163c-0.401-0.438-0.772-0.898-1.118-1.322l0.23-0.252c-2.402-5.094-1.066-11.361,3.445-14.992
			c5.135-4.136,12.619-3.542,17.015,1.389c0.078,0.074,0.152,0.156,22.346,27.756c0.16,0.2,0.301,0.416,0.416,0.639
			c10.202,19.774,4.867,44.381-12.69,58.511C147.986,165.189,137.691,168.798,126.995,168.798z"/>
	</g>
	<path d="M42.224,94.151c-4.938-2.272-9.178-5.591-12.604-9.853c-5.866-7.284-8.539-16.425-7.533-25.729
		s5.576-17.657,12.868-23.523c7.284-5.866,16.432-8.495,25.729-7.544c9.304,1.01,17.657,5.576,23.523,12.868
		c3.252,4.039,5.524,8.621,6.75,13.625l-7.388,1.812c-0.958-3.913-2.736-7.5-5.283-10.67c-4.596-5.71-11.134-9.289-18.418-10.076
		c-7.28-0.772-14.438,1.307-20.145,5.911c-5.71,4.589-9.285,11.13-10.076,18.415c-0.787,7.284,1.307,14.442,5.899,20.145
		c2.684,3.341,6.003,5.94,9.857,7.715L42.224,94.151z"/>
	<path d="M47.37,118.981c-13.688-2.369-26.037-9.645-34.761-20.486C-7.158,73.94-3.256,37.868,21.311,18.087
		c24.578-19.774,60.638-15.86,80.408,8.702c4.188,5.205,7.399,11.019,9.549,17.286l-7.195,2.465
		c-1.86-5.428-4.648-10.47-8.279-14.984C78.649,10.261,47.377,6.875,26.078,24.012C4.778,41.157,1.393,72.432,18.534,93.728
		c7.563,9.4,18.266,15.712,30.135,17.769L47.37,118.981z"/>
</g>
<g>
</g>
<g>
</g>
<g>
</g>
<g>
</g>
<g>
</g>
<g>
</g>
<g>
</g>
<g>
</g>
<g>
</g>
<g>
</g>
<g>
</g>
<g>
</g>
<g>
</g>
<g>
</g>
<g>
</g>
</svg>
