<svg version="1.1" xmlns="http://www.w3.org/2000/svg" xmlns:xlink="http://www.w3.org/1999/xlink" x="0px" y="0px"
	 viewBox="0 0 367.832 367.832" style="enable-background:new 0 0 367.832 367.832;" xml:space="preserve">
<path d="M360.332,70.863h-17.683l-47.799-52.536c-2.788-3.063-7.532-3.288-10.595-0.5c-3.064,2.788-3.288,7.531-0.501,10.595
	l38.614,42.441H45.463l36.383-39.988h144.57c4.143,0,7.5-3.358,7.5-7.5s-3.357-7.5-7.5-7.5H78.529c-2.112,0-4.126,0.891-5.548,2.453
	L25.183,70.863H7.5c-4.143,0-7.5,3.358-7.5,7.5v72.512c0,4.142,3.357,7.5,7.5,7.5h17.683l47.799,52.536
	c1.422,1.562,3.436,2.453,5.548,2.453h69.819v30.854c0,4.142,3.357,7.5,7.5,7.5h19.326v23.802c0,4.142,3.357,7.5,7.5,7.5
	c14.871,0,26.969,12.098,26.969,26.969s-12.098,26.969-26.969,26.969s-26.969-12.098-26.969-26.969c0-4.142-3.357-7.5-7.5-7.5
	s-7.5,3.358-7.5,7.5c0,23.142,18.827,41.969,41.969,41.969s41.969-18.827,41.969-41.969c0-20.583-14.894-37.751-34.469-41.297
	v-16.974h21.809c4.143,0,7.5-3.358,7.5-7.5v-30.854h69.819c2.193,0,4.276-0.96,5.701-2.627l22.08-25.831
	c2.691-3.148,2.32-7.883-0.828-10.574c-3.149-2.692-7.884-2.32-10.574,0.828l-19.835,23.204h-73.863h-56.135H81.846l-36.383-39.988
	h314.869c4.143,0,7.5-3.358,7.5-7.5V78.363C367.832,74.221,364.475,70.863,360.332,70.863z M204.483,213.364v23.354h-41.135v-23.354
	H204.483z M186.615,143.375l34.13-34.13c2.929-2.929,2.929-7.678,0-10.606c-2.93-2.929-7.678-2.929-10.607,0l-44.737,44.737h-59.29
	l57.513-57.512h139.794l-57.513,57.512H186.615z M15,85.863h13.499h33.407l-33.772,33.771c-2.929,2.929-2.929,7.678,0,10.606
	c1.465,1.465,3.384,2.197,5.304,2.197c1.919,0,3.839-0.732,5.304-2.197L83.12,85.863h59.29l-57.513,57.512H15V85.863z
	 M352.832,143.375h-85.713l57.513-57.512h14.702h13.499V143.375z"/>
<g>
</g>
<g>
</g>
<g>
</g>
<g>
</g>
<g>
</g>
<g>
</g>
<g>
</g>
<g>
</g>
<g>
</g>
<g>
</g>
<g>
</g>
<g>
</g>
<g>
</g>
<g>
</g>
<g>
</g>
</svg>
