<svg version="1.1" xmlns="http://www.w3.org/2000/svg" xmlns:xlink="http://www.w3.org/1999/xlink" x="0px" y="0px"
	 viewBox="0 0 510.918 510.918" style="enable-background:new 0 0 510.918 510.918;" xml:space="preserve">
<g>
	<path d="M478.81,422.307l-67.82-117.982c22.969-31.625,36.539-70.497,36.539-112.485C447.529,86.059,361.47,0,255.689,0
		S63.849,86.059,63.849,191.84c0,42.067,13.621,81.007,36.67,112.664L32.126,422.276c-1.28,2.205-1.433,4.887-0.412,7.223
		c1.021,2.335,3.094,4.044,5.582,4.602l75.905,16.999l52.674,57.237c1.523,1.655,3.663,2.583,5.886,2.583
		c0.292,0,0.586-0.016,0.88-0.048c2.53-0.28,4.776-1.747,6.049-3.952l71.206-123.333c1.925,0.057,3.854,0.095,5.792,0.095
		c1.787,0,3.567-0.029,5.343-0.078l71.197,123.316c1.273,2.205,3.519,3.672,6.049,3.952c0.294,0.032,0.588,0.048,0.88,0.048
		c2.223,0,4.362-0.927,5.886-2.583l52.674-57.237l75.905-16.999c2.481-0.556,4.551-2.258,5.575-4.585
		C480.221,427.187,480.078,424.511,478.81,422.307z M170.277,489.491l-42.888-46.604l8.667-14.96
		c2.215-3.823,0.911-8.717-2.912-10.933c-3.822-2.215-8.718-0.911-10.933,2.912l-8.623,14.883l-62.145-13.917l59.784-102.947
		c13.531,15.483,29.505,28.773,47.314,39.275l-21.845,37.706c-2.215,3.823-0.911,8.717,2.912,10.933
		c1.262,0.731,2.642,1.079,4.003,1.079c2.76,0,5.446-1.431,6.93-3.991l22.112-38.165c18.415,8.879,38.458,14.892,59.546,17.479
		L170.277,489.491z M79.849,191.84C79.849,94.882,158.73,16,255.689,16s175.84,78.882,175.84,175.84
		c0,93.652-73.596,170.431-165.989,175.559c-0.348-0.001-0.697,0.015-1.045,0.061c-2.918,0.145-5.853,0.221-8.806,0.221
		C158.73,367.68,79.849,288.799,79.849,191.84z M399.224,434.365l-8.377-14.458c-2.216-3.824-7.112-5.125-10.933-2.912
		c-3.823,2.215-5.127,7.11-2.912,10.933l7.84,13.533l-44.201,48.031L278.749,382.29c21.747-2.617,42.384-8.886,61.282-18.176
		l22.487,38.813c1.484,2.561,4.169,3.991,6.93,3.991c1.361,0,2.741-0.348,4.003-1.079c3.823-2.215,5.127-7.11,2.912-10.933
		l-22.274-38.446c17.36-10.416,32.946-23.494,46.185-38.673l59.25,103.075L399.224,434.365z"/>
	<path d="M415.529,191.84c0-37.211-13.068-73.447-36.796-102.032c-2.823-3.399-7.866-3.869-11.266-1.046
		c-3.399,2.822-3.868,7.866-1.046,11.266c21.35,25.72,33.108,58.326,33.108,91.813c0,79.313-64.526,143.84-143.84,143.84
		s-143.84-64.526-143.84-143.84c0-79.314,64.526-143.84,143.84-143.84c33.042,0,64.109,10.893,89.843,31.502
		c3.45,2.763,8.483,2.206,11.245-1.243c2.762-3.449,2.206-8.483-1.243-11.245C327.34,44.435,291.882,32,255.689,32
		c-88.136,0-159.84,71.704-159.84,159.84s71.704,159.84,159.84,159.84S415.529,279.977,415.529,191.84z"/>
	<path d="M298.188,71.236c-4.166-1.465-8.735,0.72-10.204,4.887c-1.468,4.167,0.719,8.735,4.887,10.204
		c31.885,11.235,56.717,35.933,68.128,67.76c1.171,3.267,4.249,5.302,7.531,5.302c0.896,0,1.808-0.151,2.7-0.471
		c4.159-1.492,6.322-6.072,4.831-10.231C363.017,112.308,334.633,84.079,298.188,71.236z"/>
</g>
<g>
</g>
<g>
</g>
<g>
</g>
<g>
</g>
<g>
</g>
<g>
</g>
<g>
</g>
<g>
</g>
<g>
</g>
<g>
</g>
<g>
</g>
<g>
</g>
<g>
</g>
<g>
</g>
<g>
</g>
</svg>
