<svg version="1.1" xmlns="http://www.w3.org/2000/svg" xmlns:xlink="http://www.w3.org/1999/xlink" x="0px" y="0px"
	 viewBox="0 0 379.328 379.328" style="enable-background:new 0 0 379.328 379.328;" xml:space="preserve">
<g>
	<path  d="M189.664,379.328c104.582,0,189.664-85.082,189.664-189.664S294.246,0,189.664,0S0,85.082,0,189.664
		S85.082,379.328,189.664,379.328z M189.664,16.257c95.616,0,173.407,77.79,173.407,173.407s-77.79,173.407-173.407,173.407
		S16.257,285.28,16.257,189.664S94.048,16.257,189.664,16.257z"/>
	<path  d="M99.136,69.369c1.455-4.243-0.805-8.868-5.048-10.323c-4.259-1.463-8.868,0.788-10.331,5.032
		c-0.813,2.365-13.071,38.749-14.006,85.456c4.95,0.87,10.413,1.699,16.379,2.447C86.756,106.224,98.941,69.922,99.136,69.369z"/>
	<path  d="M157.402,351.398c1.512,1.244,3.341,1.861,5.162,1.861c2.341,0,4.658-1.008,6.267-2.951
		c2.861-3.455,2.382-8.576-1.073-11.437c-0.309-0.252-24.597-20.931-49.178-66.232c-6.698-0.114-13.006-0.463-18.915-1.008
		C127.131,325.875,155.955,350.212,157.402,351.398z"/>
	<path  d="M99.022,230.413c-7.966-20.451-11.551-41.748-12.583-61.915c-5.918-0.699-11.478-1.496-16.509-2.333
		c0.919,22.541,4.804,46.691,13.941,70.141c2.439,6.267,4.958,12.152,7.503,17.858c5.698,0.788,11.973,1.357,18.655,1.731
		C106.273,248.003,102.574,239.533,99.022,230.413z"/>
	<path  d="M183.974,148.525l-19.5-107.639c-0.797-4.414-5.032-7.364-9.445-6.552
		c-4.414,0.797-7.348,5.032-6.552,9.445l19.517,107.704c2.666-0.398,5.324-0.756,8.015-1.252
		C178.69,149.753,181.324,149.119,183.974,148.525z"/>
	<path  d="M188.648,265.496l14.696,81.083c0.707,3.926,4.129,6.682,7.99,6.682c0.48,0,0.967-0.041,1.455-0.13
		c4.414-0.797,7.348-5.032,6.552-9.445l-14.818-81.765c-2.52,0.626-4.926,1.284-7.519,1.886
		C194.135,264.463,191.452,264.91,188.648,265.496z"/>
	<path  d="M193.33,247.962c2.853-0.658,5.519-1.39,8.291-2.081l-14.745-81.359
		c-2.642,0.577-5.267,1.211-7.933,1.699c-2.707,0.496-5.365,0.854-8.047,1.26l14.859,82.025
		C188.29,248.986,190.729,248.564,193.33,247.962z"/>
	<path  d="M216.277,26.735c-3.56-2.731-8.657-2.04-11.38,1.512c-2.731,3.56-2.057,8.657,1.496,11.396
		c0.406,0.309,33.441,26.304,55.51,78.538c5.08-2.764,9.917-5.511,14.298-8.137C252.644,55.087,218.073,28.109,216.277,26.735z"/>
	<path  d="M274.551,156.979c4.869,20.769,5.788,42.187,4.528,62.501c5.999-2.682,11.608-5.332,16.729-7.925
		c0.537-18.996-0.853-38.806-5.43-58.29c-2.317-9.876-5.105-19.094-8.185-27.783c-4.487,2.65-9.323,5.381-14.461,8.137
		C270.275,140.998,272.616,148.72,274.551,156.979z"/>
	<path  d="M254.701,324.598c-1.796,4.113,0.073,8.901,4.186,10.705c1.057,0.463,2.17,0.683,3.251,0.683
		c3.129,0,6.113-1.821,7.454-4.869c1.146-2.617,20.004-46.365,25.085-100.835c-5.43,2.577-11.136,5.186-17.354,7.803
		C271.226,286.175,254.953,324.021,254.701,324.598z"/>
	<path  d="M267.739,133.618c-1.837-5.357-3.772-10.543-5.836-15.436
		c-21.541,11.721-48.796,23.857-77.929,30.344l2.902,16.005C217.236,157.873,245.361,145.64,267.739,133.618z"/>
	<path  d="M317.99,101.55c3.52-2.788,4.121-7.893,1.341-11.421c-2.78-3.52-7.893-4.121-11.421-1.333
		c-0.268,0.211-12.347,9.657-31.701,21.248c2.105,4.91,4.097,10.079,5.991,15.436C303.318,113.003,316.803,102.493,317.99,101.55z"
		/>
	<path  d="M86.439,168.497c11.795,1.39,25.158,2.382,39.611,2.382c14.119,0,29.263-1.016,44.845-3.39
		l-2.902-15.997c-30.523,4.568-59.42,3.284-81.863,0.48C86.057,157.369,86.147,162.889,86.439,168.497z"/>
	<path  d="M37.204,158.816c1.154,0.358,13.42,4.121,32.726,7.348c-0.236-5.666-0.284-11.217-0.171-16.639
		c-16.899-2.967-27.45-6.145-27.71-6.227c-4.284-1.349-8.844,1.049-10.177,5.34C30.531,152.923,32.921,157.475,37.204,158.816z"/>
	<path  d="M69.93,166.164c5.032,0.837,10.592,1.634,16.509,2.333c-0.285-5.617-0.374-11.136-0.301-16.525
		c-5.958-0.748-11.429-1.577-16.379-2.447C69.646,154.947,69.694,160.507,69.93,166.164z"/>
	<path  d="M178.942,166.229c2.674-0.488,5.292-1.122,7.933-1.699l-2.902-16.005
		c-2.65,0.593-5.292,1.219-7.966,1.715c-2.691,0.496-5.349,0.854-8.015,1.252l2.902,15.997
		C173.569,167.083,176.236,166.725,178.942,166.229z"/>
	<path  d="M282.2,125.489c-1.894-5.357-3.885-10.527-5.991-15.436c-4.381,2.626-9.218,5.365-14.298,8.137
		c2.065,4.893,3.999,10.079,5.836,15.436C272.876,130.862,277.713,128.139,282.2,125.489z"/>
	<path  d="M351.772,195.834c3.406-2.918,3.804-8.055,0.878-11.461c-2.926-3.406-8.064-3.804-11.461-0.878
		c-0.268,0.228-15.387,12.916-45.382,28.068c-0.179,6.34-0.561,12.599-1.13,18.72C331.646,212.709,350.512,196.915,351.772,195.834z
		"/>
	<path  d="M43.724,240.565c-3.853-2.268-8.836-0.975-11.104,2.886c-2.284,3.869-0.992,8.852,2.878,11.128
		c1.431,0.845,23.313,13.282,64.167,17.037c-2.788-5.511-5.56-11.315-8.291-17.452C60.379,249.889,44.016,240.736,43.724,240.565z"
		/>
	<path  d="M110.028,255.904c2.829,5.95,5.69,11.461,8.551,16.729c1.561,0.024,3.064,0.089,4.674,0.089
		c18.826,0,40.765-2.105,65.403-7.226l-2.894-15.973C156.012,255.725,130.691,257.05,110.028,255.904z"/>
	<path  d="M201.621,245.889l2.902,16.03c28.409-7.015,52.73-15.387,72.808-23.833
		c0.764-6.056,1.357-12.274,1.748-18.598C258.448,228.714,232.632,238.151,201.621,245.889z"/>
	<path  d="M91.373,254.172c2.731,6.137,5.503,11.941,8.291,17.452c5.909,0.545,12.209,0.894,18.915,1.008
		c-2.861-5.267-5.714-10.787-8.551-16.729C103.347,255.53,97.071,254.961,91.373,254.172z"/>
	<path  d="M193.33,247.962c-2.601,0.602-5.04,1.024-7.576,1.553l2.894,15.973
		c2.804-0.585,5.479-1.024,8.356-1.691c2.585-0.602,4.999-1.26,7.519-1.886l-2.902-16.03
		C198.849,246.572,196.183,247.304,193.33,247.962z"/>
	<path  d="M277.331,238.078c6.218-2.617,11.925-5.219,17.354-7.803c0.569-6.121,0.951-12.38,1.13-18.72
		c-5.121,2.585-10.738,5.243-16.729,7.925C278.688,225.804,278.095,232.03,277.331,238.078z"/>
</g>
<g>
</g>
<g>
</g>
<g>
</g>
<g>
</g>
<g>
</g>
<g>
</g>
<g>
</g>
<g>
</g>
<g>
</g>
<g>
</g>
<g>
</g>
<g>
</g>
<g>
</g>
<g>
</g>
<g>
</g>
</svg>
