<svg version="1.1" xmlns="http://www.w3.org/2000/svg" xmlns:xlink="http://www.w3.org/1999/xlink" x="0px" y="0px"
	 viewBox="0 0 330.589 330.589" style="enable-background:new 0 0 330.589 330.589;" xml:space="preserve">
<path d="M323.613,211.114v-0.449c0-16.385-13.331-29.716-29.716-29.716h-8.674l-74.795-54.088
	c-3.357-2.427-8.045-1.673-10.473,1.683c-2.427,3.356-1.674,8.045,1.683,10.473l57.986,41.933H85.232l62.898-45.606
	c4.945,3.218,10.838,5.096,17.164,5.096c17.404,0,31.563-14.159,31.563-31.563c0-4.142-3.358-7.5-7.5-7.5s-7.5,3.358-7.5,7.5
	c0,9.133-7.43,16.563-16.563,16.563c-1.057,0-2.089-0.11-3.091-0.3l7.182-5.207c3.353-2.432,4.101-7.121,1.669-10.474
	s-7.12-4.102-10.475-1.669l-10.502,7.615c-0.863-2.004-1.345-4.21-1.345-6.527c0-9.133,7.43-16.563,16.563-16.563
	c4.142,0,7.5-3.358,7.5-7.5V68.027h19.375c4.142,0,7.5-3.358,7.5-7.5V7.5c0-4.142-3.358-7.5-7.5-7.5h-54.375
	c-4.142,0-7.5,3.358-7.5,7.5v53.027c0,4.142,3.358,7.5,7.5,7.5h20v10.188c-13.795,3.375-24.063,15.842-24.063,30.662
	c0,5.607,1.476,10.873,4.05,15.441l-78.104,56.632H36.916c-16.509,0-29.94,13.431-29.94,29.94c0,8.928,3.933,16.95,10.151,22.44
	c-6.218,5.49-10.151,13.512-10.151,22.44s3.933,16.95,10.151,22.44c-6.218,5.49-10.151,13.512-10.151,22.44
	c0,16.509,13.431,29.94,29.94,29.94h256.981c16.385,0,29.716-13.331,29.716-29.716v-0.449c0-8.83-3.875-16.768-10.01-22.215
	c6.134-5.447,10.01-13.385,10.01-22.215v-0.449c0-8.83-3.875-16.768-10.01-22.215C319.737,227.882,323.613,219.944,323.613,211.114z
	 M145.294,15h39.375v38.027h-39.375V15z M21.976,210.889c0-8.238,6.702-14.94,14.94-14.94s14.94,6.702,14.94,14.94
	s-6.702,14.94-14.94,14.94S21.976,219.127,21.976,210.889z M21.976,255.769c0-8.238,6.702-14.94,14.94-14.94
	s14.94,6.702,14.94,14.94s-6.702,14.94-14.94,14.94S21.976,264.007,21.976,255.769z M21.976,300.649
	c0-8.238,6.702-14.94,14.94-14.94s14.94,6.702,14.94,14.94s-6.702,14.94-14.94,14.94S21.976,308.887,21.976,300.649z
	 M308.613,255.544v0.449c0,8.114-6.602,14.715-14.716,14.715H155.628H92.961c-4.142,0-7.5,3.358-7.5,7.5s3.358,7.5,7.5,7.5h62.667
	h138.269c8.114,0,14.716,6.601,14.716,14.715v0.449c0,8.114-6.602,14.716-14.716,14.716H62.845c2.545-4.401,4.011-9.501,4.011-14.94
	c0-8.928-3.933-16.95-10.151-22.44c6.218-5.49,10.151-13.512,10.151-22.44c0-5.439-1.465-10.539-4.011-14.94h231.052
	C302.011,240.829,308.613,247.43,308.613,255.544z M62.845,225.829c2.545-4.401,4.011-9.501,4.011-14.94s-1.465-10.539-4.011-14.94
	h219.937c0.002,0,0.004,0,0.006,0c0.003,0,0.006,0,0.008,0h11.101c8.114,0,14.716,6.602,14.716,14.716v0.449
	c0,8.114-6.602,14.715-14.716,14.715H62.845z"/>
<g>
</g>
<g>
</g>
<g>
</g>
<g>
</g>
<g>
</g>
<g>
</g>
<g>
</g>
<g>
</g>
<g>
</g>
<g>
</g>
<g>
</g>
<g>
</g>
<g>
</g>
<g>
</g>
<g>
</g>
</svg>
