<svg version="1.1" xmlns="http://www.w3.org/2000/svg" xmlns:xlink="http://www.w3.org/1999/xlink" x="0px" y="0px"
	 viewBox="0 0 324.278 324.278" style="enable-background:new 0 0 324.278 324.278;" xml:space="preserve">
<g>
	<path d="M93.218,112.357h13.218h101.587v15.08c0,23.475-19.098,42.572-42.572,42.572h-1.011c-19.779,0-36.805-13.412-41.403-32.615
		c-0.965-4.028-5.014-6.51-9.041-5.547c-4.028,0.965-6.512,5.012-5.547,9.041c6.221,25.979,29.246,44.122,55.991,44.122h1.011
		c31.746,0,57.572-25.827,57.572-57.572v-15.08h0.431h13.218c4.142,0,7.5-3.358,7.5-7.5s-3.358-7.5-7.5-7.5h-5.718V78.444
		c0-24.865-13.946-46.531-34.424-57.598V7.5c0-4.142-3.358-7.5-7.5-7.5s-7.5,3.358-7.5,7.5v7.507
		c-5.123-1.293-10.481-1.987-16-1.987h-1.17c-5.518,0-10.877,0.694-16,1.987V7.5c0-4.142-3.358-7.5-7.5-7.5s-7.5,3.358-7.5,7.5
		v13.346c-20.479,11.066-34.424,32.732-34.424,57.598v18.913h-5.718c-4.142,0-7.5,3.358-7.5,7.5S89.076,112.357,93.218,112.357z
		 M113.936,78.444c0-16.121,7.614-30.489,19.424-39.726v2.938c0,4.142,3.358,7.5,7.5,7.5s7.5-3.358,7.5-7.5v-11.02
		c5.031-1.688,10.407-2.617,16-2.617h1.17c5.592,0,10.969,0.929,16,2.617v11.02c0,4.142,3.358,7.5,7.5,7.5s7.5-3.358,7.5-7.5v-2.938
		c11.811,9.237,19.424,23.604,19.424,39.726v18.913H113.936V78.444z"/>
	<path d="M239.338,197.603h-2.666H87.606H84.94c-32.003,0-58.04,26.037-58.04,58.04v61.136c0,4.142,3.358,7.5,7.5,7.5h53.206
		h149.066h53.206c4.142,0,7.5-3.358,7.5-7.5v-61.136C297.378,223.64,271.341,197.603,239.338,197.603z M41.9,255.643
		c0-23.732,19.308-43.04,43.04-43.04h2.666h20.64v54.901c0,4.142,3.358,7.5,7.5,7.5h92.787c4.142,0,7.5-3.358,7.5-7.5v-35.699
		c0-4.142-3.358-7.5-7.5-7.5s-7.5,3.358-7.5,7.5v28.199h-77.787v-47.401h105.927v96.675H95.106v-61.472c0-4.142-3.358-7.5-7.5-7.5
		s-7.5,3.358-7.5,7.5v61.472H41.9V255.643z M282.378,309.278h-38.206v-96.406c21.465,2.41,38.206,20.672,38.206,42.77V309.278z"/>
	<path d="M115.746,297.931h92.787c4.142,0,7.5-3.358,7.5-7.5s-3.358-7.5-7.5-7.5h-92.787c-4.142,0-7.5,3.358-7.5,7.5
		S111.604,297.931,115.746,297.931z"/>
</g>
<g>
</g>
<g>
</g>
<g>
</g>
<g>
</g>
<g>
</g>
<g>
</g>
<g>
</g>
<g>
</g>
<g>
</g>
<g>
</g>
<g>
</g>
<g>
</g>
<g>
</g>
<g>
</g>
<g>
</g>
</svg>
